<?xml version="1.0" encoding="UTF-8" standalone="no"?>
<!-- Created with Inkscape (http://www.inkscape.org/) -->

<svg
   xmlns:dc="http://purl.org/dc/elements/1.1/"
   xmlns:cc="http://creativecommons.org/ns#"
   xmlns:rdf="http://www.w3.org/1999/02/22-rdf-syntax-ns#"
   xmlns:svg="http://www.w3.org/2000/svg"
   xmlns="http://www.w3.org/2000/svg"
   xmlns:sodipodi="http://sodipodi.sourceforge.net/DTD/sodipodi-0.dtd"
   xmlns:inkscape="http://www.inkscape.org/namespaces/inkscape"
   version="1.1"
   id="svg6338"
   width="1080"
   height="810"
   viewBox="0 0 1080 810"
   sodipodi:docname="cloud.background.svg"
   inkscape:version="0.92.3 (2405546, 2018-03-11)">
  <metadata
     id="metadata6344">
    <rdf:RDF>
      <cc:Work
         rdf:about="">
        <dc:format>image/svg+xml</dc:format>
        <dc:type
           rdf:resource="http://purl.org/dc/dcmitype/StillImage" />
        <dc:title></dc:title>
      </cc:Work>
    </rdf:RDF>
  </metadata>
  <defs
     id="defs6342">
    <inkscape:path-effect
       effect="bspline"
       id="path-effect7225"
       is_visible="true"
       weight="33.333333"
       steps="2"
       helper_size="0"
       apply_no_weight="true"
       apply_with_weight="true"
       only_selected="false" />
    <inkscape:path-effect
       effect="bspline"
       id="path-effect7088"
       is_visible="true"
       weight="33.333333"
       steps="2"
       helper_size="0"
       apply_no_weight="true"
       apply_with_weight="true"
       only_selected="false" />
    <inkscape:path-effect
       effect="bspline"
       id="path-effect7088-3"
       is_visible="true"
       weight="33.333333"
       steps="2"
       helper_size="0"
       apply_no_weight="true"
       apply_with_weight="true"
       only_selected="false" />
    <inkscape:path-effect
       effect="bspline"
       id="path-effect7088-8"
       is_visible="true"
       weight="33.333333"
       steps="2"
       helper_size="0"
       apply_no_weight="true"
       apply_with_weight="true"
       only_selected="false" />
  </defs>
  <sodipodi:namedview
     pagecolor="#ffffff"
     bordercolor="#666666"
     borderopacity="1"
     objecttolerance="10"
     gridtolerance="10"
     guidetolerance="10"
     inkscape:pageopacity="0"
     inkscape:pageshadow="2"
     inkscape:window-width="1532"
     inkscape:window-height="1000"
     id="namedview6340"
     showgrid="false"
     inkscape:pagecheckerboard="false"
     showborder="true"
     inkscape:zoom="0.70710678"
     inkscape:cx="487.88103"
     inkscape:cy="325.37294"
     inkscape:window-x="1958"
     inkscape:window-y="0"
     inkscape:window-maximized="0"
     inkscape:current-layer="g6348" />
  <g
     id="g6348"
     transform="translate(-40.042373,-251.69492)"
     style="fill:#afafe9;fill-opacity:1">
    <path
       style="fill:#d1c4e9;fill-opacity:1;stroke-width:1.64841366"
       clip-path="none"
       d="m 1052.4458,764.5957 c -31.1533,22.61755 -72.62551,18.98234 -108.64072,28.53073 -5.86817,0.38334 -9.15759,1.80576 -13.50269,2.54916 -1.57271,0.26908 -4.16442,-0.87923 -4.38636,-1.24326 -0.13894,-0.2278 0.55066,-0.24696 0.83868,-0.33083 22.79223,-6.63714 59.76104,-12.34812 69.83012,-13.48148 23.71637,-2.77841 51.59797,-15.3462 71.91467,-32.3563 3.3273,-2.78579 5.7027,-7.02976 7.4617,-10.80904 2.668,-5.7322 5.2061,-14.37656 3.5945,-20.64627 -0.4025,-1.56557 1.7119,-3.21485 2.5096,-2.25728 0.6447,0.77387 1.235,2.70111 1.4045,6.25455 -2.026,19.27801 -13.7574,36.98115 -31.024,43.79002 z m -2.7969,-99.73747 c -31.9584,-20.68988 -69.94565,30.08532 -67.45433,-30.84457 1.72893,-42.28454 -45.4207,-57.54611 -70.83135,-49.29216 -43.00273,2.84361 -46.30027,66.11203 -63.98794,62.71713 -4.32713,-0.83053 -6.09357,-2.96848 -0.63574,-11.38798 18.02788,-45.15059 -16.3261,-48.10766 -24.39,-57.90922 -0.94429,-0.74834 -1.73422,-1.68964 -2.52165,-2.61181 -0.92751,-1.08623 -1.77197,-2.24801 -2.58441,-3.42865 -0.85581,-1.24363 -1.71475,-2.49538 -2.40763,-3.84307 -0.31881,-0.62013 -0.53068,-1.29296 -0.79795,-1.93858 -0.30063,-0.72623 -0.71481,-1.41201 -0.90624,-2.17676 -8.45128,-33.76387 -2.48832,-69.80114 -10.10257,-104.10569 -7.50745,-33.82341 -23.56315,-62.04489 -43.75825,-87.31489 -18.09087,-22.637 -40.49745,-43.73969 -66.90499,-54.54997 -40.1067,-16.41823 -86.01884,-16.10118 -128.92752,-11.52651 -35.40954,3.77515 -72.57438,11.47767 -102.27832,31.75954 -27.59313,18.84061 -52.4865,46.54001 -63.54532,78.75917 -4.90825,14.29984 -24.08608,67.26212 13.14591,43.10107 24.30957,-12.50527 89.24289,-13.43882 91.37147,6.10486 -42.76102,-11.20763 -92.88394,-7.17536 -125.42655,26.01808 -24.17427,16.77809 -24.69078,60.67248 -62.85523,45.03095 -43.53238,3.03429 -80.67947,36.00895 -88.68947,80.48774 -14.5555,29.88139 4.34568,-50.1272 20.29981,-54.27144 23.33228,-41.15181 86.17882,-13.92587 103.90186,-54.93466 29.6742,-28.10493 28.91562,-68.86362 45.20187,-102.46963 26.64465,-54.98014 59.01552,-80.89485 103.05038,-93.72466 67.73343,-19.7345 159.88573,-27.35219 214.99447,7.40861 72.45439,39.69229 109.86346,115.77205 104.26543,221.07788 -1.4538,27.34747 34.49143,48.71632 69.40517,33.60277 42.51752,-10.72094 111.00372,2.02458 102.28061,64.44861 -6.17997,44.22487 35.24118,-2.24818 66.38758,23.22354 7.5124,6.14369 9.7814,12.9971 12.8391,24.61437 -2.8105,22.97444 20.0289,26.30383 13.8192,30.56623 -0.3812,0.26166 -1.7712,-0.0856 -2.1019,-0.77442 -1.9324,-4.02483 -8.8138,-9.01928 -11.6864,-13.13681 -8.1099,-11.62478 5.0717,-24.51577 -18.1691,-38.67907 z M 882.33369,801.45552 c -31.15875,4.76571 -56.14715,7.3286 -81.27608,10.02627 -39.65304,4.25688 -77.47386,5.47437 -126.50838,10.6674 -33.43734,8.43916 -0.20623,41.26808 -11.67938,92.82786 -10.70233,37.36337 -69.81154,56.9568 -17.63163,19.27511 13.32,-14.82311 26.67026,-50.40547 3.50628,-97.47563 -17.52836,-35.61833 58.63814,-21.73801 94.68409,-25.43962 57.77207,-1.45765 151.03468,-15.36251 192.43312,-19.56971 0.36527,-0.0372 -9.04479,2.33297 -8.71146,2.22455 0.22728,-0.0739 3.46442,-0.15957 3.66663,0.99248 0.0435,0.24712 0.14558,0.61543 -0.15904,0.64116 -5.77871,1.22256 -42.86721,5.1381 -48.32415,5.83013 z M 569.5199,745.32898 c -41.968,-16.04461 -53.50503,39.26096 -49.52498,21.02669 4.77905,-19.00309 25.3195,-38.53792 49.52498,-21.02669 z m -55.71573,195.94853 c -5.4088,-49.71716 -53.2334,6.61385 -63.16528,-6.73019 23.91992,0.27483 48.58378,-37.38273 63.02111,-3.7986 4.13092,5.30992 5.45531,27.76225 0.14412,10.52879 z M 445.02497,763.5399 c 3.61019,4.78778 1.29338,-3.18098 -34.66254,-1.71694 -24.96343,1.01643 -46.82796,14.34066 -66.06531,33.69722 -12.25549,16.36424 -29.3517,48.25011 -22.46578,76.05334 0.12548,0.50634 -0.82582,0.80264 -1.1989,1.06498 -7.07182,4.97276 -4.78181,-22.44739 -3.04189,-31.67386 5.84615,-31.00122 35.4688,-84.8856 82.5373,-90.22923 13.47109,-1.3077 36.31064,1.41726 44.89712,12.80449 z m -5.06758,176.03135 c -11.55445,-4.58669 13.03258,-3.10445 0,0 z m -50.25537,-3.50505 c -22.39777,4.53729 -79.38227,-48.28144 -33.06271,-14.04234 9.60014,5.84152 28.13344,11.16942 33.06271,14.04234 z M 309.17741,430.14798 c 14.79234,-1.1803 26.46864,-2.37573 38.32864,-1.64572 12.7671,0.78585 47.01043,7.87458 37.55195,8.14341 -9.89805,0.28132 -30.88175,-7.25344 -53.39954,-6.39715 -10.88091,0.41376 -31.28106,-0.56579 -37.07948,4.09954 2.05463,-1.62499 5.95284,-3.51023 14.59843,-4.20008 z m -9.44338,416.1854 c -35.17141,-0.27833 -66.04722,-4.16693 -99.37093,-12.51541 -15.01553,-0.20913 -72.46417,-29.0437 -27.79641,-13.94881 35.99793,13.49564 76.2345,15.81831 112.67207,20.9688 3.6895,-3.77919 33.4642,1.94176 14.49527,5.49542 z m 15.9181,-415.82592 c -6.63496,0.34884 -11.27436,0.0677 -18.09594,2.31106 -47.03147,13.70422 -106.9315,62.92107 -124.30521,107.44933 -15.43364,32.42533 -26.25478,60.47279 -17.48241,75.79189 5.7607,10.05984 -10.97908,-117.75039 142.15064,-180.94553 3.35166,-1.3832 6.75919,-2.6827 10.27318,-3.53236 2.44462,-0.59109 7.15601,-0.95484 7.45974,-1.07439 z m -165.45938,191.1263 c -16.3233,8.48809 -43.02495,39.27745 -16.3233,8.48809 4.4168,-4.17291 33.96512,-23.42757 16.3233,-8.48809 z"
       id="path6358"
       inkscape:connector-curvature="0"
       sodipodi:nodetypes="ccssacassscccscsccaaaaasaaaascccccccsscscsscsssccscccscssscccccscccsccssscscccccccsscsccccccccssaccccc" />
    <path
       style="opacity:0.50499998;fill:#d1c4e9;fill-opacity:1;stroke-width:0.00643912"
       d="m 294.93785,433.86932 c 0.013,-0.0117 0.28931,-0.19124 0.41766,-0.27047 0.2075,-0.12806 0.44868,-0.26831 0.64275,-0.37367 0.0755,-0.0411 0.0934,-0.0473 0.38867,-0.13543 0.17024,-0.0508 0.31208,-0.0915 0.31521,-0.0905 0.003,10e-4 -0.064,0.0307 -0.14915,0.0655 -0.54808,0.22515 -1.05895,0.47793 -1.49349,0.73902 -0.10911,0.0655 -0.13764,0.081 -0.12159,0.0655 z"
       id="path6962"
       inkscape:connector-curvature="0" />
    <path
       style="opacity:0.50499998;fill:#d1c4e9;fill-opacity:1;stroke-width:0.01287823"
       d="m 295.30616,433.64097 c 0,-0.003 0.0357,-0.0275 0.0791,-0.0538 0.0436,-0.0263 0.0827,-0.0536 0.0869,-0.0607 0.005,-0.007 0.0113,-0.0117 0.0162,-0.0117 0.0146,0.003 0.1344,-0.0686 0.1344,-0.0801 0,-0.007 0.005,-0.0101 0.01,-0.008 0.0146,0.005 0.10375,-0.0464 0.10375,-0.0593 0,-0.007 0.006,-0.007 0.013,-0.003 0.006,0.005 0.013,8.7e-4 0.013,-0.008 0,-0.008 0.003,-0.0134 0.006,-0.008 0.008,0.008 0.26321,-0.13191 0.26926,-0.148 0.002,-0.005 0.0113,-0.008 0.0206,-0.003 0.01,0.003 0.0251,-0.002 0.0357,-0.0134 0.01,-0.01 0.0225,-0.0168 0.0266,-0.0117 0.005,0.005 0.0146,10e-4 0.0248,-0.007 0.01,-0.008 0.0203,-0.0117 0.0238,-0.008 0.003,0.003 0.023,-2.3e-4 0.0431,-0.008 0.0201,-0.008 0.0409,-0.0169 0.046,-0.0184 0.005,-0.002 0.013,-0.003 0.019,-0.007 0.005,-0.002 0.0146,-0.005 0.0222,-0.007 0.006,-0.002 0.0162,-0.005 0.019,-0.007 0.003,-0.002 0.0206,-0.005 0.0379,-0.008 0.0173,-0.003 0.0402,-0.01 0.0506,-0.0134 0.01,-0.005 0.0254,-0.01 0.0332,-0.0117 0.008,-0.002 0.0321,-0.007 0.0538,-0.0117 0.0277,-0.007 0.0395,-0.003 0.0395,0.007 0,0.008 -0.003,0.0117 -0.008,0.008 -0.005,-0.005 -0.0217,2.2e-4 -0.0379,0.0117 -0.0162,0.0117 -0.0295,0.0168 -0.0295,0.0134 0,-0.003 -0.013,-2e-5 -0.0285,0.008 -0.0162,0.008 -0.0349,0.0173 -0.0425,0.0186 -0.008,10e-4 -0.042,0.0151 -0.076,0.0322 -0.034,0.0168 -0.0648,0.0305 -0.0683,0.0315 -0.0431,0.0117 -0.10132,0.0414 -0.10132,0.0513 0,0.007 -0.003,0.008 -0.008,0.003 -0.005,-0.005 -0.0274,0.003 -0.0506,0.0186 -0.0233,0.0151 -0.0423,0.0235 -0.0423,0.0193 0,-0.005 -0.0242,0.005 -0.0538,0.0213 -0.0297,0.0168 -0.058,0.028 -0.0634,0.0265 -0.005,-10e-4 -0.01,0.003 -0.01,0.0117 0,0.008 -0.006,0.0101 -0.013,0.005 -0.006,-0.005 -0.013,-8.7e-4 -0.013,0.008 0,0.008 -0.003,0.0117 -0.008,0.007 -0.005,-0.005 -0.0611,0.0203 -0.12531,0.0558 -0.0644,0.0355 -0.12046,0.061 -0.12451,0.0566 -0.005,-0.005 -0.008,-6.3e-4 -0.008,0.008 0,0.008 -0.006,0.0117 -0.013,0.008 -0.006,-0.005 -0.013,-0.002 -0.013,0.007 0,0.008 -0.006,0.0117 -0.013,0.007 -0.006,-0.005 -0.013,-0.002 -0.013,0.007 0,0.008 -0.006,0.0117 -0.013,0.007 -0.006,-0.005 -0.013,-0.002 -0.013,0.007 0,0.008 -0.005,0.0117 -0.0113,0.007 -0.006,-0.003 -0.013,-0.003 -0.0162,0.003 -0.003,0.008 -0.19437,0.10761 -0.20821,0.10761 -0.003,0 -0.005,-0.003 -0.005,-0.007 z"
       id="path6964"
       inkscape:connector-curvature="0" />
    <path
       style="opacity:0.50499998;fill:#d1c4e9;fill-opacity:1;stroke-width:0.01287823"
       d="m 295.39622,433.58871 c 0.0113,-0.0117 0.10132,-0.0727 0.10765,-0.0727 0.0146,0 0.29038,-0.17357 0.29922,-0.18787 0.005,-0.008 0.01,-0.0101 0.01,-0.005 1.1e-4,0.005 0.067,-0.0253 0.1485,-0.0687 0.0815,-0.0434 0.15563,-0.0788 0.16465,-0.0788 0.01,0 0.0164,-0.007 0.0164,-0.0134 0,-0.008 0.005,-0.0101 0.013,-0.007 0.013,0.008 0.11429,-0.0189 0.11429,-0.0313 2e-5,-0.005 0.0177,-0.008 0.0394,-0.0101 0.0216,-8e-4 0.043,-0.007 0.0475,-0.0134 0.005,-0.007 0.0248,-0.0134 0.0451,-0.0151 0.0203,-0.002 0.0402,-0.008 0.0443,-0.0151 0.005,-0.007 0.0173,-0.008 0.0297,-0.003 0.0146,0.005 -0.0243,0.0283 -0.12661,0.0724 -0.0819,0.0352 -0.18315,0.0799 -0.22494,0.0994 -0.23472,0.10912 -0.33606,0.15823 -0.51688,0.25081 -0.18198,0.093 -0.22631,0.11347 -0.21,0.0967 z"
       id="path6966"
       inkscape:connector-curvature="0" />
    <path
       style="opacity:0.50499998;fill:#afafe9;fill-opacity:1;stroke-width:0.0078125"
       d=""
       id="path6968"
       inkscape:connector-curvature="0"
       transform="translate(40.042373,-18.305083)" />
    <path
       style="opacity:0.50499998;fill:#afafe9;fill-opacity:1;stroke-width:0.0078125"
       d=""
       id="path6970"
       inkscape:connector-curvature="0"
       transform="translate(40.042373,-18.305083)" />
    <path
       style="opacity:0.50499998;fill:#afafe9;fill-opacity:1;stroke-width:0.0078125"
       d=""
       id="path6972"
       inkscape:connector-curvature="0"
       transform="translate(40.042373,-18.305083)" />
    <path
       style="opacity:0.50499998;fill:#d1c4e9;fill-opacity:1;stroke-width:0.01287823"
       d="m 283.75519,439.35107 c 0,-1.67706 10e-4,-1.77314 0.0222,-1.77954 0.013,-0.003 0.32138,-0.12755 0.68709,-0.275 2.572,-1.03762 4.93319,-1.9142 7.62466,-2.83059 1.27226,-0.43319 3.82651,-1.25006 3.8628,-1.23538 0.005,0.002 -0.0895,0.0598 -0.21049,0.12822 -0.1224,0.0692 -0.22321,0.13459 -0.22718,0.14733 -0.005,0.0134 -0.0198,0.023 -0.0363,0.023 -0.0162,0 -0.10538,0.0476 -0.19863,0.10593 -0.2102,0.13141 -0.70966,0.47395 -0.7326,0.50253 -0.01,0.0117 0.0709,-0.0374 0.17812,-0.10895 0.51844,-0.34564 1.13728,-0.66856 1.80996,-0.94443 0.31634,-0.12973 0.32623,-0.13325 0.54461,-0.19733 0.101,-0.0297 0.31759,-0.097 0.48129,-0.14984 0.69854,-0.22528 1.5615,-0.47457 2.31146,-0.66772 0.24381,-0.0629 0.44615,-0.11716 0.44962,-0.12085 0.008,-0.008 -0.01,-0.005 -0.42428,0.0897 -1.04017,0.23699 -2.09457,0.54435 -2.86242,0.83438 -0.16309,0.0615 -0.81748,0.26469 -0.84804,0.26316 -0.0287,-0.001 0.45521,-0.24306 0.81638,-0.40767 2.46593,-1.12394 5.76213,-1.91426 9.87278,-2.3672 0.83417,-0.0919 1.25828,-0.12973 3.39438,-0.30202 2.50751,-0.20234 2.88965,-0.23345 2.97957,-0.24253 l 0.0791,-0.008 v 0.40044 0.40041 h -0.0689 c -0.13634,0 -2.07997,0.0883 -2.12859,0.0969 -0.0668,0.0117 0.18577,0.005 0.98829,-0.0245 0.48044,-0.0178 0.94905,-0.0364 1.04136,-0.0411 l 0.16781,-0.008 v 0.0729 0.0729 l -0.0538,0.008 c -0.0297,0.005 -0.2875,0.0342 -0.5731,0.0667 -2.41872,0.27464 -3.88675,0.50686 -5.09011,0.80516 -2.35617,0.58409 -5.01034,1.47803 -8.5289,2.87261 -3.85762,1.52897 -8.17048,3.3537 -12.03505,5.09195 -0.96925,0.43595 -2.74362,1.24688 -3.18379,1.45507 -0.0548,0.026 -0.10181,0.0471 -0.10457,0.0471 -0.003,0 -0.005,-0.79775 -0.005,-1.77277 z m 10.71668,-5.15094 c 0.0162,-0.0208 0.0146,-0.0213 -0.005,-0.005 -0.013,0.0101 -0.0222,0.0201 -0.0222,0.023 0,0.0101 0.01,0.003 0.0269,-0.0179 z m 6.23616,-2.32624 c 2.50734,-0.50749 5.5917,-0.86951 9.32817,-1.09487 0.24728,-0.0151 0.57786,-0.0349 0.73459,-0.0444 0.39716,-0.0241 0.18845,-0.0248 -0.37995,-0.001 -1.37448,0.0571 -1.75998,0.0763 -2.63445,0.13157 -2.26088,0.14264 -4.17688,0.38589 -6.04146,0.76675 -0.48228,0.0985 -1.3045,0.28503 -1.32987,0.30169 -0.0146,0.0101 -0.013,0.0117 0.006,0.007 0.0146,-0.003 0.15644,-0.033 0.31665,-0.0654 z"
       id="path6974"
       inkscape:connector-curvature="0" />
    <path
       style="opacity:1;fill:#d1c4e9;fill-opacity:1;stroke-width:0.01287823"
       d="m 283.75523,439.35421 3e-5,-1.77242 0.49474,0.44995 c 3.44496,-1.3982 6.76324,-3.24642 10.11258,-4.31275 0.76191,-0.24257 1.56748,-0.49113 1.59173,-0.49113 0.01,0 -0.0747,0.0521 -0.18611,0.11582 -0.39735,0.22728 -1.07201,0.66464 -1.19663,0.77575 l -0.0316,0.0281 0.0379,-0.0238 c 0.0209,-0.0134 0.10684,-0.0694 0.19103,-0.12503 0.64358,-0.42607 1.6725,-0.92279 2.28965,-1.10534 0.11251,-0.0332 0.3298,-0.1009 0.48305,-0.15051 0.77381,-0.25004 1.84303,-0.5562 2.56245,-0.73376 0.12062,-0.0298 0.21666,-0.0568 0.2134,-0.0602 -0.006,-0.008 -0.65449,0.1408 -1.066,0.24425 -0.7563,0.19023 -1.72608,0.48851 -2.25238,0.69274 -0.14218,0.0552 -0.8046,0.25643 -0.81355,0.24718 -0.006,-0.007 0.40285,-0.21282 0.69113,-0.34712 2.56263,-1.19385 6.04238,-2.01876 10.42374,-2.47104 0.5836,-0.0602 1.15114,-0.10945 2.7231,-0.23619 2.2759,-0.18349 3.13761,-0.25361 3.22655,-0.26265 l 0.0791,-0.008 v 0.40044 0.40042 h -0.0689 c -0.14769,0 -2.07464,0.0887 -2.10961,0.0972 -0.01,0.003 0.006,0.005 0.0384,0.007 0.0639,0.002 1.70853,-0.0583 1.97228,-0.0719 l 0.16782,-0.008 v 0.0729 0.0729 l -0.0538,0.008 c -0.0297,0.005 -0.31315,0.0372 -0.63011,0.0732 -2.26251,0.25733 -3.7667,0.49191 -4.87624,0.76048 -2.35734,0.57061 -5.11582,1.49487 -8.68221,2.90908 -4.8228,1.91242 -10.15618,4.20197 -14.79969,6.35331 -0.27516,0.12755 -0.50741,0.2348 -0.51612,0.23849 -0.013,0.005 -0.0162,-0.3529 -0.0162,-1.76572 z m 16.9528,-7.48032 c 2.62741,-0.53179 5.92747,-0.90819 9.88546,-1.12752 0.38109,-0.0211 0.46237,-0.0285 0.34631,-0.0312 -0.0801,-0.002 -1.50026,0.0565 -2.03084,0.0835 -3.30927,0.16813 -5.61766,0.46165 -8.09961,1.02988 -0.22291,0.0511 -0.41385,0.0984 -0.42429,0.10509 -0.0146,0.0101 -0.013,0.0101 0.006,0.005 0.0146,-0.003 0.15644,-0.033 0.31665,-0.0654 z"
       id="path6976"
       inkscape:connector-curvature="0"
       sodipodi:nodetypes="ccccscccccccccccscccccccscccccccccccccccsccccccc" />
    <path
       style="opacity:1;fill:#afafe9;fill-opacity:1;stroke-width:0.0078125"
       d=""
       id="path6978"
       inkscape:connector-curvature="0"
       transform="translate(40.042373,-18.305083)" />
    <path
       style="opacity:1;fill:#afafe9;fill-opacity:1;stroke-width:0.0078125"
       d=""
       id="path6980"
       inkscape:connector-curvature="0"
       transform="translate(40.042373,-18.305083)" />
    <path
       style="opacity:1;fill:#afafe9;fill-opacity:1;stroke-width:0.0078125"
       d=""
       id="path6982"
       inkscape:connector-curvature="0"
       transform="translate(40.042373,-18.305083)" />
    <path
       style="opacity:1;fill:#afafe9;fill-opacity:1;stroke-width:0.0078125"
       d=""
       id="path6984"
       inkscape:connector-curvature="0"
       transform="translate(40.042373,-18.305083)" />
    <path
       style="opacity:1;fill:#afafe9;fill-opacity:1;stroke-width:0.0078125"
       d=""
       id="path6986"
       inkscape:connector-curvature="0"
       transform="translate(40.042373,-18.305083)" />
    <path
       style="opacity:1;fill:#afafe9;fill-opacity:1;stroke-width:0.0078125"
       d=""
       id="path6988"
       inkscape:connector-curvature="0"
       transform="translate(40.042373,-18.305083)" />
    <path
       style="opacity:1;fill:#afafe9;fill-opacity:1;stroke-width:0.00390625"
       d=""
       id="path6990"
       inkscape:connector-curvature="0"
       transform="translate(40.042373,-18.305083)" />
    <path
       style="opacity:1;fill:#afafe9;fill-opacity:1;stroke-width:0.00390625"
       d=""
       id="path6992"
       inkscape:connector-curvature="0"
       transform="translate(40.042373,-18.305083)" />
    <path
       style="opacity:1;fill:#afafe9;fill-opacity:1;stroke-width:0.00390625"
       d=""
       id="path6994"
       inkscape:connector-curvature="0"
       transform="translate(40.042373,-18.305083)" />
    <path
       style="opacity:1;fill:#afafe9;fill-opacity:1;stroke-width:0.00390625"
       d=""
       id="path6996"
       inkscape:connector-curvature="0"
       transform="translate(40.042373,-18.305083)" />
    <path
       style="opacity:1;fill:#d1c4e9;fill-opacity:1;stroke-width:0.00643912"
       d="m 295.04385,433.80219 c 0.003,-0.003 0.0611,-0.0411 0.12889,-0.0845 0.0944,-0.0605 0.12516,-0.0773 0.13164,-0.0717 0.006,0.005 0.005,0.0101 -0.013,0.0201 -0.0113,0.007 -0.0217,0.0151 -0.0229,0.0188 -0.001,0.003 -0.005,0.003 -0.008,0.002 -0.003,-0.002 -0.006,-8e-5 -0.006,0.005 0,0.005 -0.002,0.007 -0.003,0.003 -0.005,-0.005 -0.0404,0.0134 -0.0404,0.0228 0,0.003 -0.002,0.005 -0.003,0.003 -0.005,-0.005 -0.053,0.0203 -0.053,0.0293 0,0.003 -0.002,0.005 -0.003,0.003 -0.005,-0.005 -0.0404,0.0134 -0.0404,0.0228 0,0.003 -0.002,0.005 -0.003,0.003 -0.005,-0.005 -0.0404,0.0134 -0.0404,0.0203 0,0.003 -0.006,0.005 -0.013,0.007 -0.008,6.1e-4 -0.0113,-10e-4 -0.008,-0.005 z"
       id="path6998"
       inkscape:connector-curvature="0" />
    <path
       style="opacity:1;fill:#d1c4e9;fill-opacity:1;stroke-width:0.00643912"
       d="m 289.77118,436.4901 v -1.22049 l 0.0555,-0.0196 c 0.0305,-0.01 0.24776,-0.0878 0.48287,-0.17141 1.17646,-0.41797 2.57989,-0.89162 3.80916,-1.28557 0.65209,-0.20897 1.8881,-0.59355 1.90764,-0.59355 0.003,0 -0.0595,0.0357 -0.13781,0.0791 -0.30528,0.16985 -0.86738,0.51464 -0.86741,0.53206 0,0.008 0.0318,-10e-4 0.0519,-0.0168 0.0191,-0.0134 0.0253,-0.0101 0.006,0.005 -0.01,0.007 0.48264,0.008 2.92733,0.0101 l 2.93841,6.1e-4 -0.11089,0.0426 c -0.061,0.0233 -0.24192,0.0928 -0.40214,0.1542 -2.25425,0.86495 -5.85941,2.34271 -8.86878,3.63532 l -0.1613,0.0692 h -0.81561 -0.8156 z m 4.92373,-2.44612 c 0.0731,-0.0491 0.17716,-0.11682 0.23115,-0.15034 0.054,-0.0337 0.10035,-0.063 0.10311,-0.0655 0.003,-0.002 -0.005,-0.005 -0.0162,-0.005 -0.0164,-1e-5 -0.0533,0.0225 -0.17248,0.10459 -0.15256,0.10526 -0.27985,0.19654 -0.29161,0.20916 -0.01,0.0101 0.003,0.003 0.14559,-0.0935 z"
       id="path7000"
       inkscape:connector-curvature="0" />
    <path
       style="opacity:1;fill:#d1c4e9;fill-opacity:1;stroke-width:0.00643912"
       d="m 294.91293,433.88434 c 0.005,-0.007 0.017,-0.0151 0.0267,-0.0208 0.0146,-0.008 0.0172,-0.008 0.0146,-4.5e-4 -0.003,0.008 -0.0172,0.0174 -0.0438,0.0297 -0.003,0.002 -0.002,-0.002 0.003,-0.008 z"
       id="path7002"
       inkscape:connector-curvature="0" />
    <path
       style="opacity:1;fill:#afafe9;fill-opacity:1;stroke-width:0.00390625"
       d=""
       id="path7004"
       inkscape:connector-curvature="0"
       transform="translate(40.042373,-18.305083)" />
    <path
       style="opacity:1;fill:#afafe9;fill-opacity:1;stroke-width:0.00390625"
       d=""
       id="path7006"
       inkscape:connector-curvature="0"
       transform="translate(40.042373,-18.305083)" />
    <path
       style="opacity:1;fill:#d1c4e9;fill-opacity:1;stroke-width:0.00643912"
       d="m 289.77118,436.4901 v -1.22047 l 0.0459,-0.0168 c 0.0253,-0.008 0.22544,-0.0803 0.44487,-0.15822 0.96741,-0.34431 2.31026,-0.80066 3.37854,-1.14818 0.70742,-0.23015 2.3582,-0.74732 2.38526,-0.74731 0.003,0 -0.0559,0.0342 -0.13083,0.0761 -0.24308,0.13576 -0.5188,0.30103 -0.7441,0.44616 -0.14201,0.0915 -0.13326,0.0853 -0.12807,0.0908 0.006,0.007 0.0373,-0.003 0.0334,-0.01 -0.002,-0.003 0.003,-0.005 0.0113,-0.005 0.008,0 0.0503,-0.0208 0.0932,-0.0461 0.36933,-0.21771 0.8628,-0.45979 1.34786,-0.66117 0.25863,-0.10744 0.34321,-0.13811 0.5331,-0.19413 0.10327,-0.0305 0.27432,-0.0833 0.37994,-0.11733 0.87353,-0.28205 1.56812,-0.48402 2.45916,-0.71507 0.2264,-0.0587 0.40776,-0.10693 0.40305,-0.1071 -0.01,-5.4e-4 -0.24203,0.0504 -0.46321,0.10191 -1.04978,0.24392 -1.98892,0.52042 -2.81808,0.8297 -0.11138,0.0416 -0.28682,0.0981 -0.52158,0.16799 -0.19458,0.058 -0.35485,0.10426 -0.3562,0.10291 -0.006,-0.007 0.58007,-0.29801 0.86105,-0.42656 1.92482,-0.88059 4.38585,-1.56387 7.3089,-2.02922 l 0.25965,-0.0414 0.002,0.24894 c 0.001,0.16006 -5.8e-4,0.25035 -0.005,0.25295 -0.003,0.002 -0.0483,0.008 -0.0999,0.0151 -0.14639,0.0181 -0.49671,0.0669 -0.73629,0.10274 -1.04616,0.15605 -2.05293,0.34875 -3.06189,0.58602 -0.33591,0.0789 -0.3618,0.0898 -0.0694,0.029 1.0599,-0.22051 2.25031,-0.41631 3.55922,-0.58544 0.18083,-0.0233 0.34802,-0.0444 0.37155,-0.0469 l 0.0428,-0.005 v 0.63926 c 0,0.3516 -0.001,0.63927 -0.003,0.63927 -0.0113,0 -0.64883,0.21165 -1.01982,0.33832 -1.11716,0.38141 -2.11966,0.74864 -3.42919,1.25616 -2.31784,0.89832 -5.65868,2.27049 -8.52638,3.50199 l -0.17663,0.0759 h -0.81602 -0.81604 z m 5.10422,-2.5649 c 0.054,-0.0342 0.1117,-0.0704 0.12823,-0.0803 0.0165,-0.0101 0.0302,-0.0193 0.0302,-0.0206 0,-10e-4 -0.008,-0.003 -0.0183,-0.003 -0.013,0 -0.0559,0.0256 -0.14413,0.086 -0.14623,0.0999 -0.30454,0.21348 -0.30976,0.22222 -0.002,0.003 0.0457,-0.0273 0.10603,-0.068 0.0603,-0.0407 0.15385,-0.10224 0.20777,-0.13644 z m 5.43813,-1.97362 c -0.002,-0.002 -0.008,-0.002 -0.0113,-5e-4 -0.005,0.002 -0.003,0.003 0.003,0.003 0.006,2.7e-4 0.01,-10e-4 0.008,-0.003 z"
       id="path7008"
       inkscape:connector-curvature="0" />
    <path
       style="opacity:1;fill:#d1c4e9;fill-opacity:1;stroke-width:0.00643912"
       d="m 297.00405,432.89529 c 0.005,-0.005 0.3025,-0.1118 0.51844,-0.18541 0.54584,-0.18601 1.14955,-0.36231 1.79534,-0.52425 0.25592,-0.0642 0.51493,-0.12537 0.52763,-0.12487 0.006,3e-4 -0.0478,0.0168 -0.11916,0.035 -0.88666,0.23621 -1.57127,0.43734 -2.35262,0.69121 -0.15823,0.0515 -0.35536,0.11112 -0.36661,0.11112 -0.003,0 -0.005,-0.001 -0.003,-0.003 z"
       id="path7010"
       inkscape:connector-curvature="0" />
    <path
       style="opacity:1;fill:#d1c4e9;fill-opacity:1;stroke-width:0.00643912"
       d="m 297.15519,432.84227 c 0.24185,-0.0912 0.83978,-0.28634 1.20006,-0.39175 0.42455,-0.1242 1.23192,-0.33668 1.25245,-0.3296 0.003,10e-4 -0.085,0.0266 -0.19584,0.0566 -0.64824,0.17554 -1.31968,0.3744 -1.9436,0.57567 -0.25641,0.0826 -0.35324,0.11247 -0.36439,0.11213 -0.005,-1.8e-4 0.0183,-0.0101 0.0514,-0.023 z"
       id="path7012"
       inkscape:connector-curvature="0" />
    <path
       style="opacity:1;fill:#d1c4e9;fill-opacity:1;stroke-width:0.00643912"
       d="m 297.09873,432.86291 c 0.006,-0.007 0.55444,-0.1943 0.74989,-0.2569 0.26163,-0.0838 0.60168,-0.18499 0.87392,-0.26006 0.34455,-0.095 0.87272,-0.22933 0.88503,-0.22508 0.003,10e-4 -0.079,0.0251 -0.18296,0.0535 -0.64439,0.1749 -1.24948,0.35356 -1.88628,0.55694 -0.4083,0.1304 -0.4508,0.14313 -0.4396,0.13174 z"
       id="path7014"
       inkscape:connector-curvature="0" />
    <path
       style="opacity:1;fill:#d1c4e9;fill-opacity:1;stroke-width:0.00643912"
       d="m 297.12669,432.85278 c 0.0472,-0.0199 0.58044,-0.2025 0.7441,-0.2547 0.44926,-0.1433 0.94661,-0.28378 1.4502,-0.40968 0.27905,-0.0697 0.28512,-0.0712 0.28846,-0.0677 0.002,0.002 -0.0762,0.0245 -0.1729,0.0506 -0.67763,0.18437 -1.22405,0.34605 -1.94888,0.57664 -0.33844,0.10761 -0.43174,0.13476 -0.36098,0.10476 z"
       id="path7016"
       inkscape:connector-curvature="0" />
    <path
       style="opacity:1;fill:#d1c4e9;fill-opacity:1;stroke-width:0.00643912"
       d="m 297.12669,432.85216 c 0.054,-0.022 0.47282,-0.16627 0.64277,-0.22146 0.4797,-0.15604 1.04458,-0.31685 1.58637,-0.45181 0.21278,-0.053 0.26211,-0.0642 0.25647,-0.0578 -0.002,0.002 -0.10716,0.032 -0.23431,0.0669 -0.66895,0.18343 -1.22137,0.34685 -1.83018,0.5414 -0.30647,0.0979 -0.43159,0.13643 -0.44276,0.1361 -0.005,-1.7e-4 0.005,-0.007 0.0216,-0.0134 z"
       id="path7018"
       inkscape:connector-curvature="0" />
    <path
       style="opacity:1;fill:#d1c4e9;fill-opacity:1;stroke-width:0.00643912"
       d="m 297.09819,432.86379 c 0.005,-0.007 0.32529,-0.1185 0.54146,-0.19025 0.56278,-0.18657 1.15254,-0.35605 1.76016,-0.50581 0.18274,-0.0451 0.2188,-0.0528 0.21197,-0.0458 -0.001,0.002 -0.0953,0.0282 -0.20845,0.0593 -0.75372,0.20719 -1.17666,0.33272 -1.96514,0.58319 -0.27312,0.0868 -0.34838,0.10878 -0.34,0.0994 z"
       id="path7020"
       inkscape:connector-curvature="0" />
    <path
       style="opacity:1;fill:#d1c4e9;fill-opacity:1;stroke-width:0.00643912"
       d="m 289.77118,436.49013 v -1.22045 l 0.0269,-0.0101 c 0.85278,-0.31116 2.70334,-0.94352 3.86142,-1.31945 0.7889,-0.25611 2.33822,-0.74122 2.36593,-0.7408 0.003,5e-5 -0.0185,0.0134 -0.0482,0.0302 -0.27617,0.15403 -0.54759,0.31497 -0.76942,0.45599 -0.16275,0.10342 -0.19273,0.12504 -0.17775,0.12823 0.006,10e-4 0.0162,-0.002 0.0201,-0.008 0.005,-0.007 0.0146,-0.0117 0.0238,-0.0134 0.008,-10e-4 0.0626,-0.0283 0.11932,-0.0609 0.42731,-0.24437 0.847,-0.44825 1.34894,-0.65533 0.25778,-0.10643 0.31454,-0.12688 0.50844,-0.18394 0.0976,-0.0287 0.26994,-0.082 0.38313,-0.1185 0.33267,-0.10727 0.78641,-0.24732 1.09419,-0.33776 0.15774,-0.0463 0.28431,-0.0851 0.28129,-0.0862 -0.013,-0.005 -0.79569,0.23211 -1.33748,0.40433 -0.13407,0.0426 -0.27022,0.0853 -0.30251,0.0949 -0.11316,0.0337 -0.0713,0.0117 0.0848,-0.0437 0.5472,-0.19548 1.18906,-0.39082 1.84527,-0.56154 0.34755,-0.0903 0.54142,-0.13627 0.50344,-0.11917 -0.006,0.003 -0.12305,0.036 -0.25808,0.0732 -0.13488,0.037 -0.24433,0.0686 -0.24301,0.0699 0.001,0.001 0.10035,-0.0243 0.22007,-0.057 0.11981,-0.0327 0.37938,-0.10107 0.577,-0.15202 0.19761,-0.051 0.35815,-0.0937 0.35676,-0.0952 -0.003,-0.003 -0.15888,0.0312 -0.43109,0.0942 -1.02652,0.23759 -1.98503,0.519 -2.79274,0.81991 -0.15839,0.059 -0.31116,0.10727 -0.76861,0.24302 -0.0744,0.0221 -0.13634,0.039 -0.13764,0.0377 -0.003,-0.003 0.4352,-0.22637 0.59281,-0.30144 1.19893,-0.57102 2.54575,-1.04443 4.11945,-1.44805 1.07007,-0.27444 2.28507,-0.52199 3.50203,-0.71351 0.10441,-0.0168 0.19639,-0.0313 0.20422,-0.0332 l 0.0146,-0.003 v 0.25207 0.25206 l -0.0146,0.003 c -0.008,0.002 -0.0627,0.01 -0.12191,0.0169 -1.23421,0.15873 -2.60021,0.40728 -3.79332,0.69047 -0.24039,0.057 -0.23874,0.0566 -0.23568,0.0598 10e-4,10e-4 0.0877,-0.0151 0.19186,-0.037 0.901,-0.18803 1.92025,-0.36135 3.02021,-0.51359 0.29565,-0.0409 0.82418,-0.10979 0.91034,-0.11867 l 0.0428,-0.005 v 0.63858 0.63856 l -0.084,0.0273 c -1.00653,0.32777 -2.02812,0.68555 -3.11731,1.09167 -2.2888,0.85345 -6.0812,2.3964 -9.72336,3.95599 l -0.23055,0.0987 h -0.81594 -0.81595 z m 4.86357,-2.40684 c 0.0684,-0.0471 0.22405,-0.14867 0.31031,-0.20266 0.0365,-0.0228 0.0707,-0.0456 0.0757,-0.0503 0.008,-0.008 0.008,-0.008 -0.003,-0.008 -0.0169,8e-5 -0.0803,0.0382 -0.0759,0.0456 0.002,0.003 -0.002,0.005 -0.008,0.005 -0.006,-4.7e-4 -0.0469,0.0238 -0.0903,0.0538 -0.10878,0.0751 -0.27865,0.19768 -0.27865,0.20115 0,0.003 0.006,10e-6 0.0697,-0.0439 z m 4.33629,-1.77515 c 0.0669,-0.0188 0.12061,-0.0354 0.11932,-0.0367 -0.003,-0.003 -0.26497,0.0701 -0.26959,0.0753 -0.003,0.005 0.001,0.003 0.15028,-0.0386 z"
       id="path7022"
       inkscape:connector-curvature="0" />
    <path
       style="opacity:1;fill:#d1c4e9;fill-opacity:1;stroke-width:0.00643912"
       d="m 289.77118,436.49015 v -1.22042 l 0.0206,-0.008 c 0.15564,-0.0583 0.9382,-0.33292 1.54995,-0.54383 1.06949,-0.36872 1.79837,-0.61216 2.68194,-0.89572 0.70933,-0.22765 1.97978,-0.62319 2.00046,-0.62284 0.003,7e-5 -0.0172,0.0134 -0.0469,0.0303 -0.40752,0.22839 -0.9499,0.55906 -0.9499,0.57914 0,0.008 0.0113,0.007 0.0217,-0.005 0.005,-0.005 0.0174,-0.0117 0.0266,-0.0134 0.01,-0.002 0.0897,-0.0444 0.17895,-0.095 0.37524,-0.21241 0.8216,-0.42782 1.2743,-0.61494 0.25457,-0.10526 0.31462,-0.12705 0.50299,-0.18322 0.21495,-0.064 0.59266,-0.18462 0.58927,-0.18814 -0.001,-10e-4 -0.0903,0.0255 -0.19779,0.0597 -0.23604,0.0751 -0.30567,0.096 -0.31853,0.0957 -0.0183,-4.9e-4 0.0347,-0.0205 0.28786,-0.10811 0.47314,-0.16376 0.87937,-0.28933 1.38372,-0.42761 0.34288,-0.094 0.81286,-0.21234 0.82933,-0.20884 0.005,0.001 -0.0421,0.0168 -0.1057,0.0342 -0.0636,0.0176 -0.11462,0.033 -0.11348,0.0342 10e-4,0.001 0.19272,-0.0479 0.4258,-0.10929 0.43685,-0.11481 0.47606,-0.12688 0.22995,-0.0717 -1.16027,0.2607 -2.18457,0.55896 -3.09919,0.90244 -0.0488,0.0183 -0.17274,0.0585 -0.27547,0.0893 -0.39527,0.11866 -0.53968,0.1609 -0.54205,0.15856 -0.003,-0.003 0.43484,-0.22683 0.56737,-0.29012 0.67939,-0.32441 1.34669,-0.59433 2.14047,-0.86582 1.5804,-0.54053 3.47995,-0.99042 5.54751,-1.31389 0.0819,-0.0134 0.15531,-0.0248 0.16306,-0.0265 l 0.0146,-0.003 v 0.25207 0.25207 l -0.0146,0.003 c -0.008,0.002 -0.0841,0.0117 -0.1694,0.0233 -1.20702,0.15705 -2.48795,0.38989 -3.67617,0.66817 -0.37127,0.087 -0.36611,0.0888 0.0261,0.0101 0.93342,-0.18925 1.93492,-0.3561 3.04529,-0.50739 0.25411,-0.0345 0.75492,-0.0981 0.77379,-0.0981 h 0.0146 v 0.63791 0.63792 l -0.084,0.0272 c -1.08829,0.3514 -2.41645,0.82248 -3.72527,1.32132 -2.3109,0.88079 -5.99452,2.38659 -9.10193,3.72073 l -0.24242,0.10409 h -0.81674 -0.81675 z m 4.92689,-2.44957 c 0.054,-0.0364 0.14656,-0.0967 0.20583,-0.13392 0.0592,-0.0372 0.11186,-0.0716 0.11689,-0.0764 0.008,-0.008 0.008,-0.008 -0.003,-0.008 -0.0173,9e-5 -0.0802,0.0384 -0.0755,0.0461 0.002,0.003 10e-4,0.007 -0.001,0.007 -0.0185,0.002 -0.0315,0.008 -0.0726,0.0357 -0.0741,0.0494 -0.2839,0.19982 -0.2839,0.20348 0,0.003 -0.005,0.007 0.11397,-0.0729 z m 2.97957,-1.3452 c 0.0173,-0.007 0.0274,-0.0117 0.0222,-0.0117 -0.005,0 -0.0237,0.005 -0.0412,0.0117 -0.0173,0.007 -0.0274,0.0117 -0.0222,0.0117 0.005,0 0.0238,-0.005 0.0412,-0.0117 z m 0.1091,-0.034 c 0.0366,-0.0117 0.0642,-0.0218 0.0611,-0.0228 -0.003,-10e-4 -0.0355,0.008 -0.072,0.0205 -0.0366,0.0117 -0.064,0.0225 -0.0611,0.0228 0.003,3.6e-4 0.0353,-0.008 0.072,-0.0203 z m 0.10943,-0.0347 c 0.013,-0.005 0.0178,-0.008 0.013,-0.008 -0.005,0 -0.0195,0.003 -0.0316,0.008 -0.013,0.005 -0.0178,0.008 -0.013,0.008 0.005,0 0.0195,-0.003 0.0316,-0.008 z m 0.0906,-0.0275 c 0.0313,-0.0101 0.0545,-0.0186 0.0512,-0.0196 -0.003,-0.001 -0.0313,0.007 -0.0627,0.0171 -0.0725,0.024 -0.064,0.0258 0.0114,0.002 z m 0.09,-0.0282 c 0.008,-0.003 0.01,-0.005 0.003,-0.005 -0.005,0 -0.0146,0.003 -0.0222,0.005 -0.008,0.003 -0.01,0.005 -0.003,0.005 0.005,0 0.0146,-0.003 0.0222,-0.005 z m 0.0538,-0.0168 c 0.013,-0.005 0.0178,-0.008 0.013,-0.008 -0.005,0 -0.0195,0.003 -0.0316,0.008 -0.013,0.005 -0.0178,0.008 -0.013,0.008 0.005,0 0.0195,-0.003 0.0316,-0.008 z m 0.0538,-0.0168 c 0.008,-0.003 0.01,-0.005 0.003,-0.005 -0.005,0 -0.0146,0.003 -0.0222,0.005 -0.008,0.003 -0.01,0.005 -0.003,0.005 0.005,0 0.0146,-0.003 0.0222,-0.005 z m 0.0538,-0.0168 c 0.013,-0.005 0.0178,-0.008 0.013,-0.008 -0.005,0 -0.0195,0.003 -0.0316,0.008 -0.013,0.005 -0.0178,0.008 -0.013,0.008 0.005,0 0.0195,-0.003 0.0316,-0.008 z m 0.0538,-0.0168 c 0.008,-0.003 0.01,-0.005 0.003,-0.005 -0.005,0 -0.0146,0.003 -0.0222,0.005 -0.008,0.003 -0.01,0.005 -0.003,0.005 0.005,0 0.0146,-0.003 0.0222,-0.005 z m 0.0443,-0.0134 c 0.008,-0.003 0.01,-0.005 0.003,-0.005 -0.005,0 -0.0146,0.003 -0.0222,0.005 -0.008,0.003 -0.01,0.005 -0.003,0.005 0.005,0 0.0146,-0.003 0.0222,-0.005 z m 0.13456,-0.0396 c 0.053,-0.0151 0.0953,-0.0295 0.0939,-0.031 -0.003,-0.003 -0.20785,0.0568 -0.21252,0.0622 -0.003,0.005 -6e-5,0.003 0.11867,-0.0312 z m 0.15044,-0.0456 c 0.0209,-0.007 0.0282,-0.0117 0.0162,-0.008 -0.024,0.005 -0.0705,0.0208 -0.0605,0.0215 0.003,2e-4 0.0233,-0.005 0.0443,-0.0117 z m 0.0697,-0.0198 c 0.008,-0.003 0.01,-0.005 0.003,-0.005 -0.005,0 -0.0146,0.003 -0.0222,0.005 -0.008,0.003 -0.01,0.005 -0.003,0.005 0.005,0 0.0146,-0.003 0.0222,-0.005 z m 0.0443,-0.0134 c 0.008,-0.003 0.01,-0.005 0.003,-0.005 -0.005,0 -0.0146,0.003 -0.0222,0.005 -0.008,0.003 -0.01,0.005 -0.003,0.005 0.005,0 0.0146,-0.003 0.0222,-0.005 z m 0.0331,-0.0101 c -0.002,-0.002 -0.008,-0.002 -0.0113,-5.2e-4 -0.005,0.002 -0.003,0.003 0.003,0.003 0.006,2.8e-4 0.01,-10e-4 0.008,-0.003 z m 0.0697,-0.0196 c -0.002,-0.002 -0.008,-0.002 -0.0113,-5.2e-4 -0.005,0.002 -0.003,0.003 0.003,0.003 0.006,2.8e-4 0.01,-0.001 0.008,-0.003 z m 0.0365,-0.008 c 0.008,-0.003 0.01,-0.005 0.003,-0.005 -0.005,0 -0.0146,0.003 -0.0222,0.005 -0.008,0.003 -0.01,0.005 -0.003,0.005 0.005,0 0.0146,-0.003 0.0222,-0.005 z m 0.0697,-0.0204 c 0.008,-0.003 0.006,-0.005 -0.01,-0.002 -0.013,0.002 -0.0279,0.007 -0.0349,0.01 -0.008,0.003 -0.006,0.005 0.01,0.002 0.013,-0.002 0.0279,-0.007 0.0349,-0.0101 z m 0.0697,-0.0196 c 0.008,-0.003 0.006,-0.005 -0.01,-0.002 -0.013,0.002 -0.0279,0.007 -0.0349,0.01 -0.008,0.003 -0.006,0.005 0.01,0.002 0.013,-0.002 0.0279,-0.007 0.0349,-0.0101 z m 0.0443,-0.0117 c 0.008,-0.003 0.01,-0.005 0.003,-0.005 -0.005,0 -0.0146,0.003 -0.0222,0.005 -0.008,0.003 -0.01,0.005 -0.003,0.005 0.005,0 0.0146,-0.003 0.0222,-0.005 z m 0.10279,-0.0302 c -0.002,-0.002 -0.008,-0.002 -0.0113,-5.2e-4 -0.005,0.002 -0.003,0.003 0.003,0.003 0.006,2.9e-4 0.01,-0.001 0.008,-0.003 z m 0.0253,-0.007 c -0.002,-0.002 -0.008,-0.002 -0.0114,-5.1e-4 -0.005,0.002 -0.003,0.003 0.003,0.003 0.006,2.8e-4 0.01,-10e-4 0.008,-0.003 z m 0.0619,-0.0168 c 0.008,-0.003 0.006,-0.005 -0.01,-0.002 -0.013,0.002 -0.0279,0.007 -0.0349,0.0101 -0.008,0.003 -0.006,0.005 0.01,0.002 0.013,-0.002 0.0279,-0.007 0.0349,-0.01 z m 0.0331,-0.0101 c -0.002,-0.002 -0.008,-0.002 -0.0113,-5.2e-4 -0.005,0.002 -0.003,0.003 0.003,0.003 0.006,2.9e-4 0.01,-10e-4 0.008,-0.003 z m 0.0744,-0.0196 c 0.0243,-0.008 0.0245,-0.008 0.003,-0.005 -0.0113,0.002 -0.0336,0.008 -0.0475,0.0134 -0.0243,0.008 -0.0245,0.008 -0.003,0.005 0.0113,-0.002 0.0336,-0.008 0.0475,-0.0134 z"
       id="path7024"
       inkscape:connector-curvature="0" />
    <path
       style="opacity:1;fill:#d1c4e9;fill-opacity:1;stroke-width:0.00643912"
       d="m 289.77118,436.49021 c 0,-1.15613 5.9e-4,-1.2206 0.0113,-1.22497 0.0704,-0.0292 1.07746,-0.38227 1.73359,-0.6077 1.22787,-0.42186 2.11059,-0.71261 3.28037,-1.08052 0.62084,-0.19526 1.21387,-0.3776 1.22737,-0.37739 0.005,7e-5 -0.0167,0.0134 -0.0464,0.0305 -0.40812,0.22983 -0.94991,0.5599 -0.94991,0.5787 0,0.0101 0.008,0.007 0.0279,-0.01 0.01,-0.008 0.0227,-0.0134 0.0279,-0.0117 0.006,0.002 0.008,0.001 0.005,-0.003 -0.002,-0.003 10e-4,-0.0101 0.008,-0.0134 0.0162,-0.008 0.0214,-0.008 0.0162,8.4e-4 -0.003,0.005 0.018,-0.005 0.0456,-0.0205 0.47256,-0.26547 0.83298,-0.44285 1.30087,-0.64021 0.24597,-0.10375 0.38259,-0.15471 0.55095,-0.20526 0.24164,-0.0726 0.36772,-0.11246 0.36488,-0.11548 -10e-4,-10e-4 -0.0546,0.0134 -0.11851,0.0339 -0.11786,0.0369 -0.16985,0.0496 -0.15109,0.0372 0.0146,-0.0101 0.44182,-0.15755 0.67415,-0.23307 0.53101,-0.17252 1.27554,-0.3814 1.7748,-0.4979 0.0729,-0.0171 0.0679,-0.007 -0.006,0.0134 -0.0373,0.0101 -0.0668,0.0198 -0.0653,0.0211 0.003,0.003 0.68294,-0.17419 0.68745,-0.17869 0.006,-0.007 -0.023,1.1e-4 -0.27914,0.0592 -1.06804,0.24595 -2.00802,0.51994 -2.83993,0.82784 -0.10846,0.0401 -0.26938,0.0947 -0.35781,0.12135 -0.34062,0.10275 -0.56432,0.16823 -0.56669,0.16577 -0.006,-0.007 0.59186,-0.30472 0.87533,-0.43418 1.92154,-0.87755 4.41041,-1.56691 7.31355,-2.0257 0.11494,-0.0181 0.21682,-0.0347 0.2264,-0.0367 l 0.0173,-0.003 v 0.25245 0.25247 l -0.0146,0.003 c -0.008,0.002 -0.0613,0.0101 -0.11867,0.0168 -0.84023,0.10727 -1.8378,0.27399 -2.72174,0.45486 -0.4621,0.0945 -1.24778,0.27103 -1.23153,0.27662 0.003,0.001 0.12288,-0.0213 0.26527,-0.0503 1.03563,-0.20986 2.16714,-0.3943 3.37452,-0.55006 0.36219,-0.0468 0.41172,-0.0528 0.43009,-0.0528 h 0.0164 v 0.63808 0.63807 l -0.084,0.0272 c -1.09691,0.35436 -2.39916,0.81618 -3.71892,1.31881 -2.27283,0.8656 -5.89818,2.34703 -9.03503,3.692 l -0.3148,0.13492 h -0.81718 -0.81718 z m 4.92689,-2.44991 c 0.0436,-0.0293 0.13326,-0.088 0.19949,-0.13024 0.13229,-0.0843 0.13812,-0.0887 0.11997,-0.0887 -0.0146,3e-5 -0.0519,0.0226 -0.0707,0.0434 -0.008,0.008 -0.0183,0.0151 -0.0237,0.0151 -0.005,0 -0.0261,0.0101 -0.0462,0.0241 -0.10862,0.0717 -0.3178,0.22399 -0.26769,0.19476 0.005,-0.003 0.0451,-0.0297 0.0887,-0.059 z m 2.7326,-1.26636 c 0.0173,-0.007 0.0274,-0.0117 0.0222,-0.0117 -0.005,0 -0.0238,0.005 -0.0412,0.0117 -0.0174,0.007 -0.0274,0.0117 -0.0222,0.0117 0.005,0 0.0238,-0.005 0.0412,-0.0117 z m 0.0918,-0.0295 c 0.013,-0.005 0.0178,-0.008 0.013,-0.008 -0.005,0 -0.0195,0.003 -0.0316,0.008 -0.013,0.005 -0.0178,0.008 -0.013,0.008 0.005,0 0.0195,-0.003 0.0316,-0.008 z m 0.0806,-0.0268 c -0.002,-0.002 -0.008,-0.002 -0.0113,-5e-4 -0.005,0.002 -0.003,0.003 0.003,0.003 0.006,2.9e-4 0.01,-0.001 0.008,-0.003 z m 0.065,-0.0189 c 0.013,-0.005 0.0178,-0.008 0.013,-0.008 -0.005,-1.2e-4 -0.018,0.003 -0.0285,0.008 -0.0245,0.0117 -0.013,0.0117 0.0162,2.4e-4 z m 0.0728,-0.023 c 0.008,-0.003 0.01,-0.005 0.003,-0.007 -0.005,-2.1e-4 -0.013,0.002 -0.019,0.007 -0.0113,0.008 -0.002,0.008 0.0162,0 z m 0.0824,-0.0262 c 0.008,-0.003 0.01,-0.005 0.003,-0.005 -0.005,0 -0.0146,0.003 -0.0222,0.005 -0.008,0.003 -0.01,0.005 -0.003,0.005 0.005,0 0.0146,-0.003 0.0222,-0.005 z m 0.0634,-0.0196 c 0.008,-0.003 0.01,-0.005 0.003,-0.007 -0.005,-2e-4 -0.013,0.002 -0.019,0.007 -0.0113,0.008 -0.002,0.008 0.0162,0 z m 0.0634,-0.0196 c 0.008,-0.003 0.01,-0.005 0.003,-0.007 -0.005,-2e-4 -0.013,0.002 -0.019,0.007 -0.0113,0.008 -0.002,0.008 0.0162,0 z m 0.0634,-0.0196 c 0.008,-0.003 0.01,-0.005 0.003,-0.005 -0.005,0 -0.0146,0.003 -0.0222,0.005 -0.008,0.003 -0.01,0.005 -0.003,0.005 0.005,0 0.0146,-0.003 0.0222,-0.005 z m 0.0634,-0.0196 c 0.008,-0.003 0.01,-0.005 0.003,-0.005 -0.005,0 -0.0146,0.003 -0.0222,0.005 -0.008,0.003 -0.01,0.005 -0.003,0.005 0.005,0 0.0146,-0.003 0.0222,-0.005 z m 0.052,-0.0171 c -0.002,-0.002 -0.008,-0.002 -0.0114,-5.2e-4 -0.005,0.002 -0.003,0.003 0.003,0.003 0.006,2.8e-4 0.01,-10e-4 0.008,-0.003 z m 0.11575,-0.0354 c 0.0113,-0.008 0.002,-0.008 -0.0162,0 -0.008,0.003 -0.01,0.005 -0.003,0.007 0.005,2.1e-4 0.013,-0.002 0.019,-0.007 z m 0.0553,-0.0171 c -0.002,-0.002 -0.008,-0.002 -0.0113,-5.2e-4 -0.005,0.002 -0.003,0.003 0.003,0.003 0.006,2.8e-4 0.01,-0.001 0.008,-0.003 z m 0.0443,-0.0134 c -0.002,-0.002 -0.008,-0.002 -0.0113,-5.1e-4 -0.005,0.002 -0.003,0.003 0.003,0.003 0.006,2.8e-4 0.01,-0.001 0.008,-0.003 z m 0.0444,-0.0134 c -0.002,-0.002 -0.008,-0.002 -0.0113,-5.1e-4 -0.005,0.002 -0.003,0.003 0.003,0.003 0.006,2.6e-4 0.01,-0.001 0.008,-0.003 z m 0.0556,-0.0151 c 0.008,-0.003 0.01,-0.005 0.003,-0.005 -0.005,0 -0.0146,0.003 -0.0222,0.005 -0.008,0.003 -0.01,0.005 -0.003,0.005 0.005,0 0.0146,-0.003 0.0222,-0.005 z m 0.0443,-0.0134 c 0.008,-0.003 0.01,-0.005 0.003,-0.005 -0.005,0 -0.0146,0.003 -0.0222,0.005 -0.008,0.003 -0.01,0.005 -0.003,0.005 0.005,0 0.0146,-0.003 0.0222,-0.005 z m 0.0331,-0.01 c -0.002,-0.002 -0.008,-0.002 -0.0114,-5.2e-4 -0.005,0.002 -0.003,0.003 0.003,0.003 0.006,2.8e-4 0.01,-10e-4 0.008,-0.003 z m 0.0887,-0.0262 c -0.002,-0.002 -0.008,-0.002 -0.0113,-5.2e-4 -0.005,0.002 -0.003,0.003 0.003,0.003 0.006,2.9e-4 0.01,-10e-4 0.008,-0.003 z m 0.31664,-0.0917 c -0.002,-0.002 -0.008,-0.002 -0.0113,-5.1e-4 -0.005,0.002 -0.003,0.003 0.003,0.003 0.006,2.6e-4 0.01,-10e-4 0.008,-0.003 z m 0.0697,-0.0196 c -0.002,-0.002 -0.008,-0.002 -0.0113,-5.1e-4 -0.005,0.002 -0.003,0.003 0.003,0.003 0.006,2.8e-4 0.01,-10e-4 0.008,-0.003 z m 0.35463,-0.0982 c -0.002,-0.002 -0.008,-0.002 -0.0113,-5.2e-4 -0.005,0.002 -0.003,0.003 0.003,0.003 0.006,2.8e-4 0.01,-10e-4 0.008,-0.003 z m 0.095,-0.0262 c -0.002,-0.002 -0.008,-0.002 -0.0113,-5.2e-4 -0.005,0.002 -0.003,0.003 0.003,0.003 0.006,2.9e-4 0.01,-0.001 0.008,-0.003 z m 0.0253,-0.007 c -0.002,-0.002 -0.008,-0.002 -0.0113,-5.2e-4 -0.005,0.002 -0.003,0.003 0.003,0.003 0.006,2.8e-4 0.01,-0.001 0.008,-0.003 z m 0.72193,-0.18987 c -0.002,-0.002 -0.008,-0.002 -0.0113,-5.2e-4 -0.005,0.002 -0.003,0.003 0.003,0.003 0.006,2.8e-4 0.01,-10e-4 0.008,-0.003 z m 0.26598,-0.059 c -0.002,-0.002 -0.008,-0.002 -0.0113,-5.2e-4 -0.005,0.002 -0.003,0.003 0.003,0.003 0.006,2.9e-4 0.01,-0.001 0.008,-0.003 z"
       id="path7026"
       inkscape:connector-curvature="0" />
    <path
       style="opacity:1;fill:#d1c4e9;fill-opacity:1;stroke-width:0.00643912"
       d="m 289.77118,436.49021 c 0,-1.1561 5.9e-4,-1.22061 0.0113,-1.22504 0.006,-0.003 0.13083,-0.0474 0.27705,-0.0996 1.06572,-0.38031 2.46299,-0.85658 3.54635,-1.20882 0.86505,-0.28126 2.41104,-0.7645 2.41912,-0.75615 0.001,10e-4 -0.0524,0.033 -0.11916,0.0706 -0.28786,0.16158 -0.74085,0.4372 -0.87458,0.53205 -0.003,0.002 -0.005,0.007 -0.002,0.008 0.002,0.002 0.013,-0.003 0.0251,-0.0117 0.0114,-0.008 0.025,-0.0151 0.0298,-0.0134 0.005,0.002 0.006,3.8e-4 0.005,-0.003 -0.005,-0.008 0.0188,-0.0233 0.0277,-0.0176 0.003,0.002 0.0809,-0.038 0.17243,-0.0892 0.5638,-0.31469 1.30982,-0.64976 1.71945,-0.77228 0.0879,-0.0263 0.15871,-0.0489 0.15758,-0.0501 -10e-4,-10e-4 -0.0162,10e-4 -0.0318,0.005 -0.0452,0.0117 -0.0413,0.003 0.006,-0.0134 0.023,-0.008 0.0407,-0.0151 0.0392,-0.0173 -0.002,-0.002 -0.0751,0.0238 -0.16346,0.0565 -0.1654,0.061 -0.88177,0.28152 -0.88936,0.27369 -0.003,-0.003 0.44369,-0.2318 0.58619,-0.29993 1.97578,-0.94465 4.53038,-1.67223 7.56132,-2.15354 0.13764,-0.0218 0.25802,-0.0414 0.26765,-0.0434 l 0.0175,-0.003 -0.002,0.25416 -0.002,0.25418 -0.25647,0.0342 c -0.92845,0.12386 -1.87782,0.28693 -2.79909,0.48068 -0.41558,0.0873 -1.00866,0.22227 -0.99624,0.22656 0.003,0.001 0.11575,-0.0199 0.24955,-0.0469 0.92487,-0.18641 1.88298,-0.34658 2.93783,-0.49111 0.23172,-0.0318 0.76587,-0.10057 0.82167,-0.10593 l 0.0459,-0.005 v 0.63906 0.63905 l -0.11235,0.0369 c -0.43921,0.14381 -0.46114,0.15119 -0.92933,0.31077 -1.60674,0.54783 -3.25408,1.1706 -5.64567,2.13432 -2.042,0.82286 -4.17787,1.71098 -6.2098,2.58209 l -0.25385,0.10878 h -0.81799 -0.81797 z m 4.97123,-2.47985 c 0.04,-0.0268 0.12062,-0.0791 0.17921,-0.11632 0.0585,-0.0372 0.10505,-0.0691 0.10327,-0.0707 -0.006,-0.007 -0.0486,0.0134 -0.0704,0.0345 -0.013,0.0117 -0.0272,0.0226 -0.0323,0.0226 -0.01,0 -0.29115,0.19301 -0.2978,0.20415 -0.005,0.007 0.006,3.2e-4 0.11786,-0.0743 z m 2.46977,-1.16767 c 0.013,-0.005 0.0178,-0.008 0.013,-0.008 -0.005,0 -0.0195,0.003 -0.0316,0.008 -0.013,0.005 -0.0178,0.008 -0.013,0.008 0.005,0 0.0195,-0.003 0.0316,-0.008 z m 0.0634,-0.0196 c 0.013,-0.005 0.0178,-0.008 0.013,-0.008 -0.005,0 -0.0195,0.003 -0.0316,0.008 -0.013,0.005 -0.0178,0.008 -0.013,0.008 0.005,0 0.0195,-0.003 0.0316,-0.008 z m 0.21847,-0.10123 c 0.16719,-0.0573 0.30049,-0.10442 0.29622,-0.10459 -0.01,-4.2e-4 -0.60336,0.2023 -0.60336,0.20619 0,0.003 -0.0266,0.0134 0.30714,-0.10157 z m -0.14558,0.0784 c 0.008,-0.003 0.01,-0.005 0.003,-0.005 -0.005,0 -0.0146,0.003 -0.0222,0.005 -0.008,0.003 -0.01,0.005 -0.003,0.005 0.005,0 0.0146,-0.003 0.0222,-0.005 z m 0.0824,-0.0262 c 0.008,-0.003 0.01,-0.005 0.003,-0.005 -0.005,0 -0.0146,0.003 -0.0222,0.005 -0.008,0.003 -0.01,0.005 -0.003,0.005 0.005,0 0.0146,-0.003 0.0222,-0.005 z m 0.0901,-0.0302 c -0.002,-0.002 -0.008,-0.002 -0.0114,-5.2e-4 -0.005,0.002 -0.003,0.003 0.003,0.003 0.006,2.9e-4 0.01,-10e-4 0.008,-0.003 z m 0.15369,-0.0484 c 0.0113,-0.008 0.002,-0.008 -0.0162,0 -0.008,0.003 -0.01,0.005 -0.003,0.007 0.005,2e-4 0.013,-0.002 0.019,-0.007 z m 0.21215,-0.10425 c 0.0418,-0.0134 0.0731,-0.0258 0.0697,-0.0261 -0.003,-3.3e-4 -0.0405,0.0101 -0.0824,0.025 -0.0418,0.0134 -0.0731,0.0258 -0.0697,0.026 0.003,3.2e-4 0.0405,-0.0117 0.0824,-0.025 z m 0.14558,-0.0459 c 0.0313,-0.01 0.0527,-0.0189 0.0475,-0.0189 -0.0114,-1.3e-4 -0.11997,0.0365 -0.11089,0.0374 0.003,3.2e-4 0.0319,-0.008 0.0634,-0.0184 z m 0.0981,-0.03 c 0.013,-0.005 0.0178,-0.008 0.013,-0.008 -0.005,0 -0.0195,0.003 -0.0316,0.008 -0.013,0.005 -0.0178,0.008 -0.013,0.008 0.005,0 0.0195,-0.003 0.0316,-0.008 z m 0.10603,0.005 c -0.002,-0.002 -0.008,-0.002 -0.0113,-5.2e-4 -0.005,0.002 -0.003,0.003 0.003,0.003 0.006,2.9e-4 0.01,-10e-4 0.008,-0.003 z m -0.0522,-0.0223 c 0.008,-0.003 0.01,-0.005 0.003,-0.005 -0.005,0 -0.0146,0.003 -0.0222,0.005 -0.008,0.003 -0.01,0.005 -0.003,0.005 0.005,0 0.0146,-0.003 0.0222,-0.005 z m 0.0442,-0.0134 c 0.008,-0.003 0.01,-0.005 0.003,-0.005 -0.005,0 -0.0146,0.003 -0.0222,0.005 -0.008,0.003 -0.01,0.005 -0.003,0.005 0.005,0 0.0146,-0.003 0.0222,-0.005 z m 0.11235,-0.033 c 0.0409,-0.0117 0.0731,-0.023 0.0717,-0.0245 -0.003,-0.003 -0.16355,0.0436 -0.16826,0.0491 -0.003,0.005 7.9e-4,0.003 0.0966,-0.0246 z m 0.10927,-0.0325 c 0.008,-0.003 0.01,-0.005 0.003,-0.005 -0.005,0 -0.0146,0.003 -0.0222,0.005 -0.008,0.003 -0.01,0.005 -0.003,0.005 0.005,0 0.0146,-0.003 0.0222,-0.005 z m 0.0697,-0.0205 c 0.008,-0.003 0.006,-0.005 -0.01,-0.002 -0.013,0.002 -0.0279,0.007 -0.0349,0.0101 -0.008,0.003 -0.006,0.005 0.01,0.002 0.013,-0.002 0.0279,-0.007 0.0349,-0.0101 z m 0.0444,-0.0117 c 0.008,-0.003 0.01,-0.005 0.003,-0.005 -0.005,0 -0.0146,0.003 -0.0222,0.005 -0.008,0.003 -0.01,0.005 -0.003,0.005 0.005,0 0.0146,-0.003 0.0222,-0.005 z m 0.0331,-0.01 c -0.002,-0.002 -0.008,-0.002 -0.0113,-5.2e-4 -0.005,0.002 -0.003,0.003 0.003,0.003 0.006,2.8e-4 0.01,-10e-4 0.008,-0.003 z m 0.0619,-0.0168 c 0.008,-0.003 0.006,-0.005 -0.01,-0.002 -0.013,0.002 -0.0279,0.007 -0.0349,0.0101 -0.008,0.003 -0.006,0.005 0.01,0.002 0.013,-0.002 0.0279,-0.007 0.0349,-0.0101 z m 0.0697,-0.0196 c 0.008,-0.003 0.006,-0.005 -0.01,-0.002 -0.013,0.002 -0.0279,0.007 -0.0349,0.0101 -0.008,0.003 -0.006,0.005 0.01,0.002 0.013,-0.002 0.0279,-0.007 0.0349,-0.0101 z m 0.0331,-0.01 c -0.002,-0.002 -0.008,-0.002 -0.0113,-5.2e-4 -0.005,0.002 -0.003,0.003 0.003,0.003 0.006,2.9e-4 0.01,-10e-4 0.008,-0.003 z m 0.0744,-0.0196 c 0.0243,-0.008 0.0245,-0.008 0.003,-0.005 -0.0113,0.002 -0.0334,0.008 -0.0475,0.0134 -0.0243,0.008 -0.0245,0.008 -0.003,0.005 0.0113,-0.002 0.0336,-0.008 0.0475,-0.0134 z m 0.0459,-0.0134 c -0.002,-0.002 -0.008,-0.002 -0.0113,-5e-4 -0.005,0.002 -0.003,0.003 0.003,0.003 0.006,2.8e-4 0.01,-10e-4 0.008,-0.003 z m 0.0939,-0.0231 c 0.0436,-0.0117 0.078,-0.0218 0.0767,-0.0231 -0.003,-0.003 -0.15742,0.0362 -0.16196,0.0409 -0.005,0.005 0.005,0.003 0.0853,-0.0178 z m 0.10246,-0.0293 c -0.002,-0.002 -0.008,-0.002 -0.0113,-5.1e-4 -0.005,0.002 -0.003,0.003 0.003,0.003 0.006,2.8e-4 0.01,-10e-4 0.008,-0.003 z m 0.0253,-0.007 c -0.002,-0.002 -0.008,-0.002 -0.0113,-5.2e-4 -0.005,0.002 -0.003,0.003 0.003,0.003 0.006,2.8e-4 0.01,-10e-4 0.008,-0.003 z m 0.0253,-0.007 c -0.002,-0.002 -0.008,-0.002 -0.0113,-5.2e-4 -0.005,0.002 -0.003,0.003 0.003,0.003 0.006,2.9e-4 0.01,-10e-4 0.008,-0.003 z m 0.0253,-0.007 c -0.002,-0.002 -0.008,-0.002 -0.0113,-5.2e-4 -0.005,0.002 -0.003,0.003 0.003,0.003 0.006,2.8e-4 0.01,-10e-4 0.008,-0.003 z m 0.0253,-0.007 c -0.002,-0.002 -0.008,-0.002 -0.0113,-5.2e-4 -0.005,0.002 -0.003,0.003 0.003,0.003 0.006,2.9e-4 0.01,-10e-4 0.008,-0.003 z m 0.0253,-0.007 c -0.002,-0.002 -0.008,-0.002 -0.0113,-5e-4 -0.005,0.002 -0.003,0.003 0.003,0.003 0.006,2.7e-4 0.01,-10e-4 0.008,-0.003 z m 0.0253,-0.007 c -0.002,-0.002 -0.008,-0.002 -0.0113,-5.2e-4 -0.005,0.002 -0.003,0.003 0.003,0.003 0.006,2.9e-4 0.01,-10e-4 0.008,-0.003 z m 0.0253,-0.007 c -0.002,-0.002 -0.008,-0.002 -0.0113,-5.2e-4 -0.005,0.002 -0.003,0.003 0.003,0.003 0.006,2.8e-4 0.01,-0.001 0.008,-0.003 z m 0.0253,-0.007 c -0.002,-0.002 -0.008,-0.002 -0.0113,-5e-4 -0.005,0.002 -0.003,0.003 0.003,0.003 0.006,2.9e-4 0.01,-0.001 0.008,-0.003 z m 0.0556,-0.0117 c 0.0173,-0.005 0.0274,-0.0101 0.0222,-0.0101 -0.005,-2.5e-4 -0.0238,0.003 -0.0412,0.008 -0.0174,0.005 -0.0274,0.0101 -0.0222,0.0101 0.005,2.5e-4 0.0238,-0.003 0.0412,-0.008 z m 0.0522,-0.0134 c -0.002,-0.002 -0.008,-0.002 -0.0113,-5.2e-4 -0.005,0.002 -0.003,0.003 0.003,0.003 0.006,2.9e-4 0.01,-0.001 0.008,-0.003 z m 0.0253,-0.007 c -0.002,-0.002 -0.008,-0.002 -0.0113,-5.1e-4 -0.005,0.002 -0.003,0.003 0.003,0.003 0.006,2.6e-4 0.01,-10e-4 0.008,-0.003 z m 0.0253,-0.007 c -0.002,-0.002 -0.008,-0.002 -0.0113,-5.2e-4 -0.005,0.002 -0.003,0.003 0.003,0.003 0.006,2.9e-4 0.01,-10e-4 0.008,-0.003 z m 0.39687,-0.0815 c 0.17032,-0.0446 0.30692,-0.082 0.30355,-0.0831 -0.003,-10e-4 -0.12143,0.0245 -0.26218,0.057 -0.2471,0.0571 -0.37505,0.0887 -0.32887,0.0813 0.013,-0.002 0.0321,-0.005 0.0443,-0.007 l 0.0222,-0.003 -0.0253,0.0101 c -0.0146,0.005 -0.0396,0.0134 -0.0571,0.0196 -0.0595,0.0191 -0.006,0.005 0.30334,-0.0751 z m -0.35083,0.0722 c 0.013,-0.003 0.013,-0.005 0.003,-0.005 -0.006,0 -0.0198,0.002 -0.0285,0.005 -0.013,0.003 -0.013,0.005 -0.003,0.005 0.006,0 0.0198,-0.002 0.0285,-0.005 z m 0.0363,-0.0101 c -0.002,-0.002 -0.008,-0.002 -0.0113,-5.2e-4 -0.005,0.002 -0.003,0.003 0.003,0.003 0.006,2.8e-4 0.01,-10e-4 0.008,-0.003 z m 0.64593,-0.15068 c -0.002,-0.002 -0.008,-0.002 -0.0113,-5.1e-4 -0.005,0.002 -0.003,0.003 0.003,0.003 0.006,2.9e-4 0.01,-10e-4 0.008,-0.003 z m 0.32297,-0.0721 c -0.002,-0.002 -0.008,-0.002 -0.0113,-5.2e-4 -0.005,0.002 -0.003,0.003 0.003,0.003 0.006,2.8e-4 0.01,-10e-4 0.008,-0.003 z"
       id="path7028"
       inkscape:connector-curvature="0" />
    <path
       style="opacity:1;fill:#d1c4e9;fill-opacity:1;stroke-width:0.00643912"
       d="m 289.77275,436.48849 0.002,-1.22208 0.14559,-0.052 c 1.19005,-0.4247 2.62686,-0.91464 3.74582,-1.27732 0.87468,-0.28347 2.32764,-0.73791 2.358,-0.7375 0.003,5e-5 -0.01,0.0101 -0.0306,0.022 -0.0209,0.0117 -0.10635,0.061 -0.18999,0.10878 -0.26047,0.149 -0.6141,0.36443 -0.73459,0.44733 -0.0459,0.0315 -0.0439,0.03 -0.0404,0.0337 0.002,0.002 0.0183,-0.008 0.0371,-0.0206 0.0188,-0.0134 0.0405,-0.0245 0.0482,-0.0253 0.0183,-0.002 0.0415,-0.0151 0.0277,-0.0168 -0.006,-3.2e-4 -0.006,-0.003 0.003,-0.0101 0.0167,-0.0134 0.0261,-0.0117 0.0162,0.002 -0.005,0.007 0.0198,-0.005 0.0546,-0.0238 0.0348,-0.0193 0.10894,-0.0602 0.16464,-0.091 0.48793,-0.26986 1.25048,-0.60878 1.61696,-0.71868 0.0888,-0.0267 0.12419,-0.0397 0.11397,-0.0424 -0.013,-0.003 -0.01,-0.005 0.019,-0.0151 0.0185,-0.007 0.0326,-0.0134 0.0313,-0.0134 -10e-4,-0.001 -0.0707,0.0226 -0.15401,0.0531 -0.16285,0.0598 -0.8729,0.27755 -0.88031,0.26989 -0.003,-0.003 0.47413,-0.24694 0.63377,-0.32272 1.96179,-0.93114 4.44331,-1.63583 7.49166,-2.12748 0.14623,-0.0236 0.27528,-0.0446 0.28663,-0.0468 l 0.0206,-0.003 -0.002,0.25443 -0.002,0.25445 -0.23115,0.031 c -0.93939,0.12604 -1.90742,0.29137 -2.78958,0.47651 -0.38277,0.0803 -1.02144,0.22527 -1.02892,0.23348 -0.002,0.002 0.005,0.002 0.0162,-4.2e-4 0.01,-0.002 0.13731,-0.0276 0.28181,-0.0567 1.05139,-0.20998 2.10813,-0.38113 3.33102,-0.53945 0.17939,-0.0231 0.34825,-0.0442 0.37526,-0.0468 l 0.0491,-0.005 -0.002,0.6398 -0.002,0.6398 -0.32929,0.10811 c -0.93405,0.30659 -2.04555,0.70044 -3.14739,1.11524 -2.2342,0.84106 -6.02377,2.38535 -9.32498,3.80002 l -0.34514,0.14784 h -0.81854 -0.81853 z m 5.11033,-2.57001 c 0.11705,-0.0753 0.14721,-0.097 0.13488,-0.097 -0.01,0 -0.0666,0.0339 -0.0666,0.0397 0,0.003 -0.013,0.0134 -0.0301,0.0204 -0.0165,0.007 -0.0851,0.052 -0.15223,0.0989 -0.12532,0.0873 -0.17365,0.12688 -0.0733,0.0597 0.0308,-0.0206 0.11511,-0.0754 0.18725,-0.12185 z m 2.3274,-1.07647 c -0.002,-0.002 -0.008,-0.002 -0.0113,-5.1e-4 -0.005,0.002 -0.003,0.003 0.003,0.003 0.006,2.7e-4 0.01,-10e-4 0.008,-0.003 z m 0.0556,-0.0151 c 0.008,-0.003 0.01,-0.005 0.003,-0.007 -0.005,-2e-4 -0.013,0.002 -0.019,0.007 -0.0113,0.008 -0.002,0.008 0.0162,0 z m 0.17731,-0.0878 c 0.10797,-0.0375 0.19343,-0.0685 0.18988,-0.0687 -0.008,-6.8e-4 -0.40271,0.13543 -0.40762,0.1408 -0.005,0.005 -0.0113,0.008 0.21774,-0.0721 z m 0.32298,-0.10861 c 0.008,-0.003 0.01,-0.005 0.003,-0.005 -0.005,0 -0.0146,0.003 -0.0222,0.005 -0.008,0.003 -0.01,0.005 -0.003,0.005 0.005,0 0.0146,-0.003 0.0222,-0.005 z m 0.0917,-0.0295 c 0.013,-0.005 0.0178,-0.008 0.013,-0.008 -0.005,0 -0.0195,0.003 -0.0316,0.008 -0.013,0.005 -0.0178,0.008 -0.013,0.008 0.005,0 0.0195,-0.003 0.0316,-0.008 z m 0.0728,-0.023 c 0.008,-0.003 0.01,-0.005 0.003,-0.005 -0.005,0 -0.0146,0.003 -0.0222,0.005 -0.008,0.003 -0.01,0.005 -0.003,0.005 0.005,0 0.0146,-0.003 0.0222,-0.005 z m 0.0823,-0.0261 c 0.008,-0.003 0.01,-0.005 0.003,-0.005 -0.005,0 -0.0146,0.003 -0.0222,0.005 -0.008,0.003 -0.01,0.005 -0.003,0.005 0.005,0 0.0146,-0.003 0.0222,-0.005 z m 0.0602,-0.0196 c 0.0113,-0.008 0.002,-0.008 -0.0162,0 -0.008,0.003 -0.01,0.005 -0.003,0.007 0.005,1.8e-4 0.0146,-0.002 0.019,-0.007 z m 0.0553,-0.0171 c -0.002,-0.002 -0.008,-0.002 -0.0113,-5.2e-4 -0.005,0.002 -0.003,0.003 0.003,0.003 0.006,2.8e-4 0.01,-10e-4 0.008,-0.003 z m 0.0556,-0.0151 c 0.008,-0.003 0.01,-0.005 0.003,-0.005 -0.005,0 -0.0146,0.003 -0.0222,0.005 -0.008,0.003 -0.01,0.005 -0.003,0.005 0.005,0 0.0146,-0.003 0.0222,-0.005 z m 0.0522,-0.0171 c -0.002,-0.002 -0.008,-0.002 -0.0113,-5.2e-4 -0.005,0.002 -0.003,0.003 0.003,0.003 0.006,2.8e-4 0.01,-10e-4 0.008,-0.003 z m 0.0443,-0.0134 c -0.002,-0.002 -0.008,-0.002 -0.0113,-5.2e-4 -0.005,0.002 -0.003,0.003 0.003,0.003 0.006,2.8e-4 0.01,-0.001 0.008,-0.003 z m 0.0443,-0.0134 c -0.002,-0.002 -0.008,-0.002 -0.0114,-5e-4 -0.005,0.002 -0.003,0.003 0.003,0.003 0.006,2.8e-4 0.01,-0.001 0.008,-0.003 z m 0.0443,-0.0134 c -0.002,-0.002 -0.008,-0.002 -0.0113,-5.2e-4 -0.005,0.002 -0.003,0.003 0.003,0.003 0.006,2.9e-4 0.01,-0.001 0.008,-0.003 z m 0.0887,-0.0262 c -0.002,-0.002 -0.008,-0.002 -0.0113,-5.2e-4 -0.005,0.002 -0.003,0.003 0.003,0.003 0.006,2.9e-4 0.01,-0.001 0.008,-0.003 z m 0.0365,-0.008 c 0.008,-0.003 0.01,-0.005 0.003,-0.007 -0.005,-2e-4 -0.013,0.002 -0.019,0.007 -0.0113,0.008 -0.002,0.008 0.0162,0 z m 0.0697,-0.0196 c 0.008,-0.003 0.01,-0.005 0.003,-0.005 -0.005,0 -0.0146,0.003 -0.0222,0.005 -0.008,0.003 -0.01,0.005 -0.003,0.005 0.005,0 0.0146,-0.003 0.0222,-0.005 z m 0.0775,-0.0236 c -0.002,-0.002 -0.008,-0.002 -0.0114,-5.2e-4 -0.005,0.002 -0.003,0.003 0.003,0.003 0.006,2.9e-4 0.01,-0.001 0.008,-0.003 z m 0.0619,-0.0151 c 0.008,-0.003 0.01,-0.005 0.003,-0.007 -0.005,-2e-4 -0.013,0.002 -0.019,0.007 -0.0114,0.008 -0.002,0.008 0.0162,0 z m 0.12808,-0.0367 c -0.002,-0.002 -0.008,-0.002 -0.0114,-5.2e-4 -0.005,0.002 -0.003,0.003 0.003,0.003 0.006,2.8e-4 0.01,-10e-4 0.008,-0.003 z m 0.076,-0.0196 c -0.002,-0.002 -0.008,-0.002 -0.0114,-5.2e-4 -0.005,0.002 -0.003,0.003 0.003,0.003 0.006,2.8e-4 0.01,-10e-4 0.008,-0.003 z m 0.0619,-0.0168 c 0.008,-0.003 0.006,-0.005 -0.01,-0.002 -0.013,0.002 -0.0279,0.007 -0.0349,0.0101 -0.008,0.003 -0.006,0.005 0.01,0.002 0.013,-0.002 0.0279,-0.007 0.0349,-0.01 z m 0.0331,-0.0101 c -0.002,-0.002 -0.008,-0.002 -0.0113,-5e-4 -0.005,0.002 -0.003,0.003 0.003,0.003 0.006,2.7e-4 0.01,-0.001 0.008,-0.003 z m 0.0253,-0.007 c -0.002,-0.002 -0.008,-0.002 -0.0113,-5.1e-4 -0.005,0.002 -0.003,0.003 0.003,0.003 0.006,2.8e-4 0.01,-10e-4 0.008,-0.003 z m 0.30398,-0.0786 c -0.002,-0.002 -0.008,-0.002 -0.0113,-5.2e-4 -0.005,0.002 -0.003,0.003 0.003,0.003 0.006,2.8e-4 0.01,-0.001 0.008,-0.003 z m 0.15839,-0.0392 c -0.002,-0.002 -0.008,-0.002 -0.0113,-5.1e-4 -0.005,0.002 -0.003,0.003 0.003,0.003 0.006,2.9e-4 0.01,-10e-4 0.008,-0.003 z m 0.076,0 c -0.002,-0.002 -0.008,-0.002 -0.0113,-5.1e-4 -0.005,0.002 -0.003,0.003 0.003,0.003 0.006,2.9e-4 0.01,-10e-4 0.008,-0.003 z m 0.29164,-0.0749 c 0.1438,-0.0375 0.25882,-0.0692 0.25564,-0.0702 -0.005,-0.002 -0.3845,0.084 -0.48224,0.10928 -0.0266,0.007 -0.0405,0.0134 -0.0316,0.0134 0.0146,10e-4 0.0146,0.002 -0.006,0.0101 -0.0342,0.0151 -0.0162,0.0101 0.26459,-0.063 z m -0.28201,0.055 c -0.005,-0.002 -0.0114,-0.002 -0.0162,0 -0.005,0.002 -8e-4,0.003 0.008,0.003 0.008,0 0.013,-0.001 0.008,-0.003 z"
       id="path7030"
       inkscape:connector-curvature="0" />
    <path
       style="opacity:1;fill:#d1c4e9;fill-opacity:1;stroke-width:0.00643912"
       d="m 289.77275,436.48835 0.002,-1.22222 0.23749,-0.0846 c 1.10528,-0.39395 2.47833,-0.86221 3.56217,-1.21483 0.8884,-0.28904 2.43146,-0.77184 2.44779,-0.76588 0.003,10e-4 -0.0744,0.0476 -0.17212,0.10325 -0.37672,0.21486 -0.84432,0.50432 -0.81468,0.50432 0.006,0 0.013,-0.003 0.0146,-0.007 0.006,-0.0101 0.0613,-0.0411 0.0772,-0.0429 0.0172,-0.002 0.0285,-0.0101 0.0146,-0.0101 -0.006,-1.5e-4 -0.005,-0.003 0.003,-0.01 0.0146,-0.0117 0.0251,-0.0134 0.0186,-0.002 -0.006,0.0117 0.003,0.007 0.12192,-0.06 0.51659,-0.28978 1.30436,-0.6459 1.68675,-0.76251 0.1224,-0.0374 0.15287,-0.0486 0.13293,-0.0493 -0.008,-2.7e-4 -0.008,-10e-4 0,-0.007 0.0173,-0.0117 0.003,-0.007 -0.12418,0.0394 -0.15401,0.0562 -0.83825,0.26505 -0.85244,0.26018 -0.0113,-0.003 0.44651,-0.23576 0.70438,-0.35679 1.82408,-0.85619 4.11085,-1.52285 6.86471,-2.00128 0.19897,-0.0345 0.84748,-0.14146 0.85834,-0.14146 0.002,0 0.003,0.11347 0.003,0.25227 0,0.19593 -0.002,0.2529 -0.008,0.25512 -0.005,0.002 -0.1091,0.0168 -0.23272,0.0327 -1.22659,0.16325 -2.52808,0.40248 -3.72523,0.68495 -0.12742,0.03 -0.049,0.0183 0.1735,-0.0261 0.31513,-0.0629 0.4024,-0.0798 0.62599,-0.12135 0.86098,-0.1599 1.83363,-0.31006 2.8243,-0.43596 0.16898,-0.0214 0.3151,-0.04 0.3247,-0.0412 l 0.0175,-0.002 -0.002,0.64132 -0.002,0.64133 -0.0791,0.0258 c -1.49636,0.48885 -2.94966,1.01388 -4.69575,1.69642 -2.26703,0.88617 -5.28439,2.12722 -8.04848,3.31036 l -0.32251,0.13811 h -0.81899 -0.81899 z m 5.07099,-2.54445 c 0.17192,-0.11112 0.1792,-0.11615 0.17473,-0.12067 -0.005,-0.005 -0.0671,0.0322 -0.0671,0.039 0,0.003 -0.013,0.0117 -0.029,0.0191 -0.0271,0.0117 -0.25798,0.16895 -0.27182,0.18433 -0.003,0.003 0.002,0.002 0.013,-0.005 0.01,-0.007 0.0916,-0.0592 0.18048,-0.11648 z m 2.59009,-1.20213 c 0.0819,-0.0285 0.1459,-0.0521 0.14234,-0.0525 -0.008,-6.8e-4 -0.3077,0.10275 -0.3126,0.10811 -0.005,0.005 -0.006,0.007 0.17026,-0.0557 z m 0.41479,-0.13811 c 0.008,-0.003 0.01,-0.005 0.003,-0.007 -0.005,-2e-4 -0.013,0.002 -0.019,0.007 -0.0113,0.008 -0.002,0.008 0.0162,0 z m 0.21677,-0.0694 c -0.002,-0.002 -0.008,-0.002 -0.0113,-5.2e-4 -0.005,0.002 -0.003,0.003 0.003,0.003 0.006,2.8e-4 0.01,-0.001 0.008,-0.003 z m 1.77966,-0.46464 c 0.13667,-0.0357 0.24605,-0.0659 0.24294,-0.0669 -0.005,-0.002 -0.30582,0.0655 -0.43159,0.0965 -0.0506,0.0117 -0.0683,0.0196 -0.0499,0.0203 0.005,1.6e-4 4.2e-4,0.005 -0.01,0.0101 -0.01,0.005 -0.0146,0.008 -0.01,0.007 0.005,-10e-4 0.12143,-0.0315 0.25808,-0.0672 z"
       id="path7032"
       inkscape:connector-curvature="0" />
    <path
       style="opacity:1;fill:#d1c4e9;fill-opacity:1;stroke-width:0.00643912"
       d="m 289.77275,436.4885 0.002,-1.22207 0.0316,-0.0117 c 0.90587,-0.32852 2.64553,-0.92335 3.7775,-1.29164 0.90914,-0.29578 2.42111,-0.76861 2.43849,-0.76255 0.003,0.001 -0.0532,0.0357 -0.12548,0.0768 -0.3848,0.21905 -0.87103,0.51798 -0.8604,0.52898 0.002,0.002 0.008,-4.2e-4 0.0146,-0.005 0.024,-0.0211 0.0786,-0.0513 0.0853,-0.0471 0.005,0.003 0.005,0.001 0.003,-0.003 -0.002,-0.003 10e-4,-0.0101 0.008,-0.0134 0.0162,-0.008 0.0214,-0.008 0.0164,-3.4e-4 -0.005,0.008 7.6e-4,0.008 0.023,-0.003 0.0113,-0.005 0.0178,-0.0117 0.0162,-0.0134 -0.002,-0.002 -0.01,1e-4 -0.017,0.005 -0.008,0.003 -0.0146,0.007 -0.0169,0.005 -0.003,-0.003 0.11413,-0.0764 0.12467,-0.0764 0.0146,0 -0.006,0.0189 -0.0417,0.0359 -0.0187,0.008 -0.0358,0.0199 -0.0383,0.024 -0.003,0.003 0.0366,-0.0151 0.0867,-0.0427 0.55723,-0.30708 1.30634,-0.64436 1.68258,-0.75757 0.0709,-0.0213 0.11154,-0.0364 0.10473,-0.0389 -0.01,-0.003 -0.008,-0.005 0.006,-0.008 0.01,-0.003 0.0167,-0.007 0.0146,-0.007 -0.002,-0.002 -0.0553,0.0168 -0.11949,0.0397 -0.14461,0.0528 -0.83552,0.26511 -0.86179,0.26482 -0.0227,-2.5e-4 0.41138,-0.22133 0.70791,-0.36051 1.84699,-0.86695 4.20726,-1.54943 6.9937,-2.02226 0.20686,-0.035 0.7165,-0.11817 0.72496,-0.11817 0.002,0 0.003,0.11348 0.003,0.25227 0,0.19594 -0.002,0.25291 -0.008,0.2551 -0.005,0.002 -0.119,0.0178 -0.2549,0.036 -1.1868,0.15957 -2.44463,0.38847 -3.54002,0.64419 -0.28625,0.0669 -0.25543,0.0635 0.14251,-0.0151 1.0086,-0.19979 2.06902,-0.37032 3.23604,-0.5204 0.20725,-0.0267 0.38751,-0.0496 0.40057,-0.051 l 0.0238,-0.002 -0.002,0.64131 -0.002,0.64131 -0.24381,0.0799 c -1.38732,0.45497 -2.82359,0.97562 -4.52477,1.64019 -2.3111,0.90283 -5.44619,2.19321 -8.222,3.38409 l -0.15402,0.066 h -0.8196 -0.81963 z m 5.14063,-2.5902 c 0.0992,-0.0634 0.10943,-0.0706 0.10522,-0.0749 -0.005,-0.005 -0.0512,0.022 -0.061,0.0342 -0.005,0.007 -0.0232,0.0184 -0.0407,0.0276 -0.0347,0.0181 -0.23499,0.15421 -0.25054,0.17018 -0.005,0.005 0.0276,-0.0151 0.0728,-0.0443 0.0452,-0.0297 0.1237,-0.0804 0.17415,-0.1128 z m 4.92869,-1.82879 c 0.1211,-0.0312 0.21909,-0.058 0.21763,-0.0595 -0.001,-0.002 -0.0828,0.0151 -0.18099,0.0379 -0.11916,0.0272 -0.17561,0.0427 -0.17013,0.0468 0.005,0.003 0.003,0.005 -0.008,0.002 -0.008,-0.002 -0.0311,-3.2e-4 -0.0499,0.003 -0.0267,0.007 -0.0314,0.008 -0.0222,0.0134 0.008,0.003 0.005,0.005 -0.01,0.002 -0.013,-0.002 -0.0183,-0.001 -0.013,6.6e-4 0.006,0.003 0.006,0.005 0,0.0101 -0.006,0.005 -0.005,0.005 0.003,0.003 0.006,-0.002 0.11186,-0.029 0.23293,-0.0602 z"
       id="path7034"
       inkscape:connector-curvature="0" />
    <path
       style="opacity:1;fill:#d1c4e9;fill-opacity:1;stroke-width:0.00643912"
       d="m 289.77275,436.48854 0.002,-1.22204 0.0253,-0.0101 c 0.48746,-0.1806 2.25464,-0.78941 3.21388,-1.10721 1.00194,-0.33195 2.98458,-0.95744 3.00847,-0.94913 0.003,10e-4 -0.0632,0.0416 -0.14769,0.0898 -0.37405,0.21406 -0.84062,0.50042 -0.84062,0.51595 0,0.002 0.006,-9.8e-4 0.0146,-0.007 0.0353,-0.0238 0.11187,-0.0706 0.1156,-0.0706 0.002,0 0.002,0.003 6e-5,0.007 -0.002,0.003 -0.002,0.007 -5e-5,0.007 0.006,0 0.0412,-0.0198 0.0412,-0.0233 0,-0.002 -0.006,-10e-5 -0.013,0.003 -0.006,0.003 -0.0164,0.007 -0.0204,0.005 -0.008,-0.003 0.11024,-0.0769 0.12321,-0.0766 0.013,3.2e-4 -0.0175,0.0245 -0.0532,0.0431 -0.0165,0.008 -0.0302,0.0174 -0.0302,0.0193 0,0.002 0.0378,-0.0174 0.084,-0.0431 0.13699,-0.0759 0.49782,-0.2608 0.64807,-0.33207 0.25506,-0.12102 0.63355,-0.28365 0.84354,-0.36254 0.0324,-0.0117 0.0564,-0.023 0.0537,-0.024 -0.003,-9.9e-4 -0.0921,0.025 -0.19816,0.0577 -0.26041,0.0803 -0.49884,0.15018 -0.51169,0.15001 -0.0409,-3.5e-4 0.63777,-0.33477 1.04787,-0.51632 1.78927,-0.79219 4.03577,-1.42256 6.65172,-1.86645 0.20686,-0.035 0.7165,-0.11817 0.72496,-0.11817 0.006,0 0.003,0.50317 -0.002,0.50684 -0.003,0.002 -0.12483,0.0198 -0.27074,0.0399 -1.02096,0.13995 -1.96217,0.30322 -2.8902,0.5012 -0.28939,0.0617 -0.79888,0.17765 -0.79562,0.18102 0.001,10e-4 0.13732,-0.0243 0.30239,-0.057 1.01854,-0.2012 2.0703,-0.37026 3.2353,-0.52009 0.20726,-0.0267 0.38752,-0.0496 0.40058,-0.051 l 0.0238,-0.002 -0.002,0.64196 -0.002,0.64195 -0.0918,0.0305 c -0.0504,0.0168 -0.23146,0.0768 -0.40214,0.13308 -0.97037,0.32089 -2.13674,0.73827 -3.28986,1.17724 -2.25387,0.858 -5.79779,2.30495 -8.95766,3.65736 l -0.39895,0.17075 h -0.82171 -0.82173 z m 5.23229,-2.65149 c 0.006,-0.005 0.008,-0.008 0.005,-0.008 -0.0113,0 -0.0418,0.0171 -0.0519,0.0295 -0.005,0.007 -0.0219,0.0178 -0.0381,0.0262 -0.0318,0.0168 -0.24047,0.15822 -0.24047,0.16308 0,0.003 0.29227,-0.18559 0.32597,-0.20988 z m 1.96545,-0.92249 c 0.0704,-0.0215 0.10035,-0.0332 0.094,-0.0369 -0.0113,-0.007 -0.0295,-6.9e-4 -0.0295,0.008 0,0.003 -0.003,0.005 -0.005,0.003 -0.006,-0.003 -0.17082,0.0515 -0.17752,0.0593 -0.002,0.002 4.6e-4,0.003 0.006,10e-4 0.005,-0.002 0.0561,-0.0176 0.11299,-0.0349 z m 0.11511,-0.0424 c -0.005,-0.003 -0.013,-0.007 -0.0162,-0.007 -0.003,0 -0.002,0.003 0.003,0.007 0.005,0.003 0.013,0.007 0.0162,0.007 0.003,0 0.002,-0.003 -0.003,-0.007 z m 2.74387,-0.79938 c 0.11414,-0.0295 0.20633,-0.0548 0.20476,-0.0565 -0.005,-0.005 -0.27272,0.0578 -0.27492,0.0637 -0.001,0.003 -0.008,0.003 -0.0146,0.001 -0.01,-0.003 -0.0113,-0.001 -0.008,0.005 0.003,0.005 0,0.007 -0.013,0.003 -0.013,-0.003 -0.0162,-0.002 -0.013,0.003 0.003,0.007 -2.1e-4,0.007 -0.0165,0.003 -0.0167,-0.003 -0.0193,-0.003 -0.0113,0.003 0.008,0.007 0.006,0.007 -0.008,0.003 -0.0237,-0.005 -0.0533,0.002 -0.0418,0.0101 0.006,0.005 0.003,0.005 -0.008,0.003 -0.01,-0.002 -0.0162,-5.7e-4 -0.0146,0.002 0.002,0.003 -5.7e-4,0.007 -0.005,0.008 -0.0113,0.005 -0.0113,0.005 0.22498,-0.0556 z"
       id="path7036"
       inkscape:connector-curvature="0" />
    <path
       style="opacity:1;fill:#d1c4e9;fill-opacity:1;stroke-width:0.00643912"
       d="m 289.77275,436.488 0.002,-1.22258 0.0887,-0.0318 c 0.84952,-0.30483 2.27035,-0.79313 3.23922,-1.11318 0.99792,-0.32967 2.89635,-0.92777 2.91948,-0.91979 0.003,10e-4 -0.0499,0.0344 -0.11883,0.0737 -0.37365,0.21369 -0.86922,0.5171 -0.86922,0.53218 0,0.002 0.006,-0.001 0.0162,-0.007 0.0679,-0.0461 0.10991,-0.0685 0.12175,-0.0654 0.006,0.002 0.0146,6.4e-4 0.017,-0.003 0.002,-0.003 -0.001,-0.005 -0.008,-0.003 -0.0248,0.007 -0.0113,-0.005 0.0462,-0.0404 0.0613,-0.0379 0.0918,-0.0481 0.0584,-0.0198 -0.01,0.008 0.11073,-0.0511 0.26915,-0.13325 0.4284,-0.22194 0.81259,-0.39669 1.20496,-0.54806 0.0446,-0.0171 0.0799,-0.0322 0.079,-0.0334 -10e-4,-10e-4 -0.0788,0.0215 -0.17274,0.0503 -0.26174,0.0803 -0.49542,0.14934 -0.52113,0.15369 -0.0229,0.003 -0.0227,0.003 0.0113,-0.0174 0.0511,-0.0313 0.49566,-0.25334 0.69027,-0.34455 1.72369,-0.80785 3.90181,-1.4578 6.44359,-1.92279 0.33811,-0.0618 1.23554,-0.2133 1.26396,-0.2133 0.008,0 0.008,0.50211 3.1e-4,0.50684 -0.003,0.002 -0.13489,0.0213 -0.29289,0.0431 -0.86341,0.11884 -1.59509,0.24151 -2.42158,0.40611 -0.42258,0.0841 -1.19852,0.25469 -1.18308,0.26001 0.003,0.001 0.10473,-0.0171 0.2244,-0.0409 1.02455,-0.20299 2.09983,-0.3757 3.27963,-0.52678 0.1968,-0.0251 0.36706,-0.0471 0.37839,-0.0488 l 0.0206,-0.003 v 0.64136 0.64136 l -0.0146,0.007 c -0.008,0.003 -0.11835,0.0404 -0.24538,0.0821 -1.05271,0.34484 -2.2714,0.77818 -3.46187,1.23095 -2.34488,0.89183 -5.92924,2.3562 -9.24452,3.77679 l -0.17702,0.0759 h -0.82201 -0.82199 z m 5.23171,-2.65048 c 0.01,-0.008 0.0113,-0.01 0.003,-0.01 -0.005,0 -0.0274,0.0134 -0.0482,0.0295 -0.0209,0.0168 -0.0405,0.0295 -0.0438,0.0295 -0.006,0 -0.21729,0.14214 -0.21729,0.14683 0,0.003 0.27228,-0.17151 0.30639,-0.1962 z m 0.23854,-0.13727 c 0.01,-0.005 0.0186,-0.0117 0.0186,-0.0134 0,-0.003 -0.0373,0.0151 -0.0438,0.0208 -0.006,0.007 0.008,0.002 0.0251,-0.008 z m 1.72689,-0.78577 c 0.0592,-0.0179 0.0817,-0.0273 0.0768,-0.0322 -0.005,-0.005 -0.008,-0.005 -0.01,0.001 -0.002,0.005 -0.01,0.008 -0.017,0.008 -0.0146,0 -0.14267,0.0429 -0.14899,0.0501 -0.002,0.002 4.9e-4,0.003 0.006,0.001 0.005,-0.002 0.0472,-0.0151 0.0934,-0.0287 z m 2.65969,-0.79263 c -0.002,-0.002 -0.008,-0.002 -0.0113,-5.2e-4 -0.005,0.002 -0.003,0.003 0.003,0.003 0.006,2.8e-4 0.01,-10e-4 0.008,-0.003 z m 0.0208,-0.01 c -0.006,-0.005 -0.003,-0.005 0.013,-0.003 0.0182,0.003 0.0201,0.003 0.0113,-0.003 -0.013,-0.008 -0.0447,-0.003 -0.0391,0.007 0.002,0.003 0.008,0.007 0.0146,0.007 0.01,-8e-5 0.01,-10e-4 0.001,-0.007 z m 0.0506,-0.0134 c -0.013,-0.008 -0.0208,-0.008 -0.0162,0 0.002,0.003 0.008,0.007 0.0146,0.007 0.01,-8e-5 0.01,-9.9e-4 10e-4,-0.007 z m 0.0285,-0.007 c -0.002,-0.003 -0.006,-0.007 -0.01,-0.007 -0.003,0 -0.006,0.003 -0.006,0.007 0,0.003 0.005,0.007 0.01,0.007 0.005,0 0.008,-0.003 0.006,-0.007 z m 0.15093,-0.0342 c 0.0726,-0.0188 0.12921,-0.0352 0.1258,-0.0364 -0.006,-0.002 -0.23534,0.05 -0.24507,0.0563 -0.003,0.002 -0.0113,0.003 -0.0182,0.002 -0.006,-0.001 -0.01,7.7e-4 -0.008,0.005 0.002,0.003 0.006,0.007 0.008,0.007 0.002,3e-5 0.0637,-0.0151 0.13634,-0.0342 z m 0.75936,-0.17973 c -0.005,-0.002 -0.0113,-0.002 -0.0162,0 -0.005,0.002 -7.9e-4,0.003 0.008,0.003 0.008,0 0.013,-0.002 0.008,-0.003 z"
       id="path7038"
       inkscape:connector-curvature="0" />
    <path
       style="opacity:1;fill:#d1c4e9;fill-opacity:1;stroke-width:0.00643912"
       d="m 289.77275,436.48788 0.002,-1.22271 0.076,-0.0273 c 0.90871,-0.32566 2.37551,-0.82928 3.34052,-1.1469 1.02638,-0.33782 2.80814,-0.89832 2.83063,-0.89043 0.003,0.001 -0.06,0.0402 -0.14088,0.0868 -0.41861,0.24104 -0.86338,0.51436 -0.83702,0.51436 0.003,0 0.01,-0.003 0.013,-0.007 0.003,-0.003 0.0558,-0.0372 0.11672,-0.0753 0.107,-0.0669 0.13894,-0.0826 0.11981,-0.0587 -0.005,0.005 0.0981,-0.0446 0.22846,-0.11196 0.27623,-0.14281 0.4549,-0.22956 0.68195,-0.331 0.15871,-0.0709 0.44539,-0.1907 0.56385,-0.23562 0.0321,-0.0117 0.0572,-0.0233 0.0559,-0.0246 -10e-4,-10e-4 -0.12872,0.0359 -0.28312,0.0828 -0.32518,0.0987 -0.40209,0.12068 -0.41188,0.11732 -0.013,-0.005 0.36697,-0.19811 0.65358,-0.33393 1.83559,-0.86984 4.17201,-1.55256 6.95021,-2.03089 0.28896,-0.0498 0.80539,-0.13476 0.81899,-0.13476 0.01,0 0.0113,0.50116 0.002,0.50686 -0.003,0.002 -0.14332,0.0226 -0.31189,0.0461 -1.09004,0.15135 -2.03276,0.31779 -3.02953,0.53484 -0.2995,0.0652 -0.54937,0.12286 -0.55386,0.12789 -0.002,0.002 0.005,0.002 0.0162,-2.5e-4 0.061,-0.0134 0.47864,-0.0937 0.64277,-0.12454 0.87325,-0.16375 1.79556,-0.30753 2.81642,-0.43922 0.20816,-0.0268 0.38915,-0.0505 0.4022,-0.0523 l 0.0238,-0.003 v 0.64185 0.64186 l -0.0146,0.007 c -0.008,0.003 -0.16671,0.0567 -0.35305,0.118 -0.8181,0.2694 -1.90144,0.65145 -2.83074,0.9983 -2.31684,0.86473 -6.23018,2.45669 -9.7516,3.96695 l -0.19227,0.0825 h -0.82257 -0.82256 z m 5.05515,-2.53521 c 0.0984,-0.063 0.11705,-0.0764 0.095,-0.0682 -0.0146,0.005 -0.18942,0.12018 -0.20897,0.13711 -0.0113,0.01 -0.0113,0.01 0.003,0.002 0.008,-0.005 0.0585,-0.0369 0.11089,-0.0704 z m 0.15401,-0.10023 c 0.0146,-0.0101 0.0259,-0.0206 0.0242,-0.0225 -0.005,-0.005 -0.0433,0.0208 -0.0582,0.0384 -0.013,0.0168 -0.008,0.0134 0.0341,-0.0151 z m 0.258,-0.15252 c 0.0113,-0.0101 0.0113,-0.0101 -0.003,-0.002 -0.0194,0.0101 -0.023,0.0117 -0.0146,0.0117 0.003,0 0.0114,-0.005 0.0185,-0.01 z m 1.7253,-0.78472 c 0.0366,-0.0117 0.0616,-0.0225 0.0554,-0.0228 -0.013,-7.2e-4 -0.13148,0.0375 -0.13148,0.0422 0,0.005 0.008,0.003 0.076,-0.0193 z m 0.0823,-0.03 c 0,-0.003 -0.003,-0.007 -0.006,-0.007 -0.003,0 -0.006,0.003 -0.006,0.007 0,0.003 0.003,0.007 0.006,0.007 0.003,0 0.006,-0.003 0.006,-0.007 z m 2.60277,-0.77323 c -0.006,-0.005 -0.005,-0.007 0.013,-0.003 0.0177,0.003 0.0198,0.002 0.0113,-0.003 -0.0146,-0.008 -0.0494,-0.001 -0.0357,0.008 0.013,0.008 0.0238,0.007 0.013,-10e-4 z m 0.0506,-0.0117 c -0.013,-0.008 -0.0208,-0.008 -0.0162,0 0.002,0.003 0.008,0.007 0.0146,0.007 0.01,-9e-5 0.01,-9.9e-4 0.001,-0.007 z m 0.0285,-0.007 c -0.002,-0.003 -0.006,-0.007 -0.01,-0.007 -0.003,0 -0.006,0.003 -0.006,0.007 0,0.003 0.005,0.007 0.01,0.007 0.005,0 0.008,-0.003 0.006,-0.007 z m 0.1459,-0.0337 c 0.0715,-0.0184 0.12889,-0.0347 0.12743,-0.0362 -0.003,-0.003 -0.22329,0.0474 -0.23862,0.0545 -0.005,0.002 -0.0146,0.003 -0.0212,0.003 -0.006,-9.2e-4 -0.01,10e-4 -0.008,0.005 0.002,0.003 0.005,0.007 0.006,0.007 0.002,0 0.0614,-0.0151 0.13277,-0.0337 z"
       id="path7040"
       inkscape:connector-curvature="0" />
    <path
       style="opacity:1;fill:#d1c4e9;fill-opacity:1;stroke-width:0.00643912"
       d="m 289.77118,436.48989 c 0,-0.8118 0.002,-1.22204 0.006,-1.22474 0.013,-0.008 0.73626,-0.26349 1.32984,-0.46885 0.90075,-0.31164 1.66331,-0.56892 2.36212,-0.79693 0.97356,-0.31767 2.52643,-0.80384 2.55029,-0.79843 0.005,10e-4 -0.0452,0.0327 -0.11056,0.0702 -0.1164,0.0669 -0.3256,0.19015 -0.49555,0.29181 -0.12029,0.0719 -0.32943,0.2043 -0.34831,0.22044 l -0.0162,0.0134 0.019,-0.0117 c 0.17761,-0.11162 0.21645,-0.13392 0.22896,-0.13056 0.01,0.002 0.0945,-0.038 0.27864,-0.13258 0.41966,-0.2155 0.80981,-0.39226 1.18815,-0.5383 0.0306,-0.0117 0.0546,-0.0223 0.0537,-0.0235 -10e-4,-10e-4 -0.0788,0.0215 -0.17272,0.0501 -0.33038,0.1009 -0.50378,0.15102 -0.51455,0.14884 -0.0193,-0.003 0.37633,-0.20542 0.72025,-0.36678 1.11419,-0.52277 2.4334,-0.98335 3.91395,-1.36647 1.0943,-0.28316 2.14281,-0.49971 3.47197,-0.71702 0.16634,-0.0272 0.30668,-0.0494 0.31189,-0.0494 0.008,0 0.01,0.0332 0.01,0.25533 0,0.16781 -0.002,0.25534 -0.006,0.25534 -0.0113,0 -0.66328,0.0915 -0.82002,0.11515 -0.91934,0.13844 -1.83873,0.30902 -2.67844,0.49698 -0.3113,0.0697 -0.37116,0.0836 -0.36845,0.0865 0.001,10e-4 0.13894,-0.024 0.30559,-0.0563 1.03492,-0.20092 2.02056,-0.35807 3.1656,-0.50474 0.19505,-0.025 0.36532,-0.0471 0.37837,-0.0489 l 0.0238,-0.003 v 0.64148 c 0,0.60433 -6.3e-4,0.64183 -0.0113,0.64737 -0.006,0.003 -0.16497,0.0567 -0.35306,0.11867 -1.109,0.36594 -2.31672,0.79812 -3.56533,1.27588 -2.2704,0.86872 -5.66385,2.25517 -8.75377,3.5765 l -0.45786,0.19579 h -0.82295 -0.82296 z m 5.11054,-2.57227 c 0.0535,-0.0342 0.0639,-0.0449 0.018,-0.0189 -0.0459,0.0261 -0.16363,0.10476 -0.16363,0.10928 0,0.002 0.0235,-0.0117 0.0522,-0.0303 0.0287,-0.0186 0.0707,-0.0456 0.0934,-0.06 z m 0.12402,-0.084 c 0.006,-0.0117 -0.0444,0.0188 -0.0575,0.0339 -0.01,0.0117 -0.006,0.0101 0.0206,-0.007 0.0182,-0.0117 0.0349,-0.024 0.0371,-0.0275 z m 1.96344,-0.91974 c 0.0293,-0.0101 0.052,-0.0186 0.0504,-0.0203 -0.003,-0.003 -0.10554,0.0293 -0.11089,0.0349 -0.005,0.005 0.008,0.002 0.0605,-0.0151 z m 0.0783,-0.025 c 0,-0.002 -0.003,-0.005 -0.006,-0.007 -0.003,-0.002 -0.006,-9.2e-4 -0.006,0.003 0,0.003 0.003,0.007 0.006,0.007 0.003,0 0.006,-0.001 0.006,-0.003 z m 2.60911,-0.77227 c 0,-10e-4 -0.005,-0.005 -0.01,-0.007 -0.005,-0.002 -0.008,-10e-4 -0.006,0.003 0.003,0.007 0.0162,0.008 0.0162,0.003 z m 0.0162,-0.01 c -0.002,-0.003 -0.008,-0.007 -0.0146,-0.007 -0.008,3.7e-4 -0.008,0.001 0.002,0.007 0.017,0.007 0.0172,0.007 0.013,0 z m 0.0285,-0.007 c -0.013,-0.008 -0.0208,-0.008 -0.0162,0 0.002,0.003 0.008,0.007 0.0146,0.007 0.01,-9e-5 0.01,-9.9e-4 0.001,-0.007 z m 0.0253,-0.007 c 0,-0.003 -0.003,-0.007 -0.006,-0.007 -0.003,0 -0.006,0.003 -0.006,0.007 0,0.003 0.003,0.007 0.006,0.007 0.003,0 0.006,-0.003 0.006,-0.007 z m 0.0253,-0.007 c 0,-0.003 -0.003,-0.007 -0.006,-0.007 -0.003,0 -0.006,0.003 -0.006,0.007 0,0.003 0.003,0.007 0.006,0.007 0.003,0 0.006,-0.003 0.006,-0.007 z m 0.12386,-0.027 c 0.0575,-0.0151 0.10343,-0.0283 0.10197,-0.0297 -0.003,-0.003 -0.20928,0.0442 -0.21606,0.0508 -0.01,0.0101 0.005,0.007 0.11397,-0.0211 z"
       id="path7042"
       inkscape:connector-curvature="0" />
    <path
       style="opacity:1;fill:#d1c4e9;fill-opacity:1;stroke-width:1.64841366"
       d="m 289.77275,436.48788 0.002,-1.22271 0.0602,-0.0218 c 0.61018,-0.22175 2.2761,-0.79527 3.16639,-1.09008 1.07748,-0.35679 2.99518,-0.96153 3.02075,-0.95258 0.003,10e-4 -0.09,0.058 -0.20752,0.12638 -0.34774,0.20214 -0.74242,0.44311 -0.74242,0.4533 0,0.002 0.006,-8.7e-4 0.0146,-0.007 0.091,-0.0615 0.1991,-0.12286 0.21651,-0.12286 0.013,0 0.1036,-0.0427 0.27314,-0.12956 0.27518,-0.14096 0.37608,-0.18984 0.60751,-0.29444 0.15012,-0.0679 0.45174,-0.1947 0.56493,-0.23757 0.0321,-0.0117 0.0574,-0.0231 0.0561,-0.0245 -10e-4,-10e-4 -0.11868,0.0328 -0.26098,0.0761 -0.32842,0.0996 -0.4006,0.12001 -0.4132,0.11733 -0.019,-0.003 0.3994,-0.21645 0.73393,-0.37298 1.8349,-0.85858 4.18632,-1.537 6.96289,-2.00887 0.31132,-0.053 0.70889,-0.11766 0.72216,-0.11766 0.008,0 0.01,0.0355 0.01,0.25533 0,0.14046 -0.002,0.25534 -0.005,0.25534 -0.01,0 -0.65566,0.0912 -0.83064,0.11733 -0.73401,0.10944 -1.58797,0.26329 -2.27979,0.41051 -0.18717,0.0399 -0.67688,0.14866 -0.71877,0.15973 -0.0584,0.0151 0.0295,3.3e-4 0.28406,-0.0489 1.03333,-0.20006 1.98779,-0.35209 3.14822,-0.50141 0.19509,-0.0251 0.36542,-0.0474 0.37848,-0.0494 l 0.0238,-0.003 -0.002,0.64386 -0.002,0.64384 -0.0602,0.021 c -0.0331,0.0117 -0.2169,0.0729 -0.40846,0.13627 -1.01334,0.33553 -2.14003,0.7386 -3.3247,1.18937 -2.22527,0.8467 -5.68557,2.25891 -8.87043,3.62015 l -0.47317,0.20225 h -0.82349 -0.82346 z m 5.0789,-2.55132 c 0.0374,-0.0243 0.0681,-0.0454 0.0681,-0.0471 0,-0.002 -0.006,4.7e-4 -0.0146,0.005 -0.0245,0.0134 -0.15045,0.0989 -0.15045,0.10225 0,0.002 0.006,-9.9e-4 0.0146,-0.007 0.008,-0.005 0.0449,-0.0293 0.0824,-0.0536 z m 0.13699,-0.0898 c 0.008,-0.007 0.013,-0.0117 0.01,-0.0117 -0.006,0 -0.053,0.0319 -0.053,0.0365 0,0.005 0.0253,-0.0101 0.0436,-0.0243 z m 1.98605,-0.93527 c 0.0173,-0.007 0.0274,-0.0117 0.0222,-0.0117 -0.005,0 -0.0238,0.005 -0.0412,0.0117 -0.0173,0.007 -0.0274,0.0117 -0.0222,0.0117 0.005,0 0.0238,-0.005 0.0412,-0.0117 z m 2.75158,-0.81842 c 0,-0.003 -0.003,-0.007 -0.006,-0.007 -0.003,0 -0.006,0.003 -0.006,0.007 0,0.003 0.003,0.007 0.006,0.007 0.003,0 0.006,-0.003 0.006,-0.007 z m 0.0253,-0.007 c 0,-0.003 -0.003,-0.007 -0.006,-0.007 -0.003,0 -0.006,0.003 -0.006,0.007 0,0.003 0.003,0.007 0.006,0.007 0.003,0 0.006,-0.003 0.006,-0.007 z m 0.11916,-0.0265 c 0.0464,-0.0117 0.083,-0.0221 0.0815,-0.0236 -0.005,-0.005 -0.17771,0.0375 -0.18475,0.0449 -0.005,0.005 -0.002,0.005 0.006,0.003 0.006,-0.002 0.0506,-0.0134 0.0969,-0.0243 z"
       id="path7044"
       inkscape:connector-curvature="0" />
    <path
       style="opacity:1;fill:#d1c4e9;fill-opacity:1;stroke-width:0.00643912"
       d="m 289.77118,436.48917 v -1.22138 l 0.0206,-0.008 c 0.1438,-0.0612 2.24034,-0.78459 3.13948,-1.08315 1.07307,-0.3563 3.05609,-0.98234 3.0883,-0.97497 0.005,0.001 -0.094,0.0617 -0.21907,0.13476 -0.34107,0.19936 -0.64643,0.38446 -0.64643,0.39186 0,0.002 0.01,-0.002 0.0206,-0.0101 0.0704,-0.0449 0.11105,-0.0665 0.12499,-0.0665 0.008,-2e-5 0.12143,-0.0535 0.25025,-0.11867 0.29693,-0.15018 0.46119,-0.22904 0.68394,-0.32806 0.15207,-0.0676 0.45465,-0.19406 0.53021,-0.2216 0.013,-0.005 0.0225,-0.01 0.0212,-0.0117 -0.001,-10e-4 -0.12451,0.0344 -0.27372,0.0793 -0.32054,0.0967 -0.37257,0.11129 -0.38346,0.10727 -0.0146,-0.005 0.45615,-0.24344 0.77073,-0.38954 1.81148,-0.84137 4.10232,-1.5048 6.8109,-1.97245 0.28588,-0.0493 0.82251,-0.13744 0.83751,-0.13744 0.01,0 0.0113,0.0168 0.0113,0.25534 0,0.14045 -0.002,0.25533 -0.005,0.25533 -0.013,0 -0.78243,0.10996 -0.96113,0.13744 -0.87689,0.13493 -1.7267,0.29429 -2.54895,0.47794 -0.13067,0.0292 -0.25303,0.0563 -0.27205,0.0603 -0.019,0.003 -0.0314,0.008 -0.0277,0.0101 0.003,10e-4 0.0978,-0.0151 0.20872,-0.0369 0.85821,-0.1671 1.64376,-0.29749 2.60516,-0.43236 0.16147,-0.0226 0.98615,-0.13124 0.99677,-0.13124 0.002,0 0.003,0.2897 0.003,0.64376 v 0.64373 l -0.22322,0.0741 c -1.60332,0.5315 -2.92777,1.01316 -4.74167,1.72435 -2.21548,0.86865 -5.09368,2.0529 -7.76146,3.19348 l -0.41228,0.17628 h -0.8242 -0.82418 z m 5.08997,-2.55934 c 0.0323,-0.0208 0.0585,-0.0389 0.0585,-0.0404 0,-0.005 -0.0232,0.0101 -0.0871,0.0518 -0.0323,0.0213 -0.0585,0.0404 -0.0585,0.0422 0,0.002 0.006,-9.5e-4 0.0146,-0.007 0.008,-0.005 0.0405,-0.0267 0.0728,-0.0473 z m 0.13131,-0.0865 c 0.006,-0.005 0.01,-0.008 0.006,-0.008 -0.008,0 -0.0535,0.0317 -0.0535,0.037 0,0.003 0.0162,-0.007 0.0473,-0.0282 z m 0.15531,-0.11079 c 0,-0.002 -0.006,-1.4e-4 -0.013,0.003 -0.006,0.003 -0.013,0.008 -0.013,0.0101 0,0.002 0.006,1.1e-4 0.013,-0.003 0.006,-0.003 0.013,-0.008 0.013,-0.0101 z m 1.83334,-0.82524 c 0.0146,-0.007 0.0162,-0.008 0.003,-0.005 -0.008,0.002 -0.0243,0.008 -0.0349,0.0134 -0.0146,0.007 -0.0162,0.008 -0.003,0.005 0.008,-0.002 0.0243,-0.008 0.0349,-0.0134 z m 2.77058,-0.82094 c 0,-0.003 -0.003,-0.007 -0.006,-0.007 -0.003,0 -0.006,0.003 -0.006,0.007 0,0.003 0.003,0.007 0.006,0.007 0.003,0 0.006,-0.003 0.006,-0.007 z m 0.10294,-0.0231 c 0.0409,-0.0101 0.0731,-0.0198 0.0717,-0.0213 -0.005,-0.005 -0.14445,0.0305 -0.15547,0.0385 -0.008,0.007 -0.008,0.007 0,0.003 0.005,-0.002 0.043,-0.0117 0.084,-0.0213 z m 0.87694,-0.20351 c -0.002,-0.002 -0.008,-0.002 -0.0113,-5.2e-4 -0.005,0.002 -0.003,0.003 0.003,0.003 0.006,2.9e-4 0.01,-0.001 0.008,-0.003 z"
       id="path7046"
       inkscape:connector-curvature="0" />
    <path
       style="opacity:1;fill:#afafe9;fill-opacity:1;stroke-width:0.00390625"
       d=""
       id="path7048"
       inkscape:connector-curvature="0"
       transform="translate(40.042373,-18.305083)" />
    <path
       style="opacity:1;fill:#afafe9;fill-opacity:1;stroke-width:0.00390625"
       d=""
       id="path7050"
       inkscape:connector-curvature="0"
       transform="translate(40.042373,-18.305083)" />
    <path
       style="opacity:1;fill:#afafe9;fill-opacity:1;stroke-width:0.00390625"
       d=""
       id="path7052"
       inkscape:connector-curvature="0"
       transform="translate(40.042373,-18.305083)" />
    <path
       style="opacity:1;fill:#d1c4e9;fill-opacity:1;stroke-width:0.00643912"
       d="m 289.77118,436.48917 v -1.22138 l 0.0206,-0.008 c 0.13116,-0.0563 2.1442,-0.75145 3.07932,-1.06325 1.02602,-0.34209 3.11558,-1.00233 3.14843,-0.99478 0.005,0.001 -0.0595,0.0416 -0.14202,0.0898 -0.0827,0.0484 -0.1973,0.11581 -0.25477,0.14984 -0.0574,0.034 -0.12434,0.0736 -0.14882,0.088 -0.10343,0.0609 -0.28815,0.17561 -0.28815,0.17894 0,0.002 0.01,-0.002 0.0206,-0.01 0.0507,-0.0324 0.0785,-0.0468 0.0903,-0.0468 0.0146,-1e-4 0.0798,-0.0312 0.38628,-0.18494 0.37422,-0.18777 0.66824,-0.32 1.03728,-0.46647 0.0342,-0.0134 0.0611,-0.0256 0.06,-0.0268 -0.001,-10e-4 -0.0989,0.0272 -0.21719,0.0632 -0.29271,0.0888 -0.42067,0.12504 -0.43283,0.12236 -0.005,-10e-4 0.0639,-0.0409 0.1545,-0.088 1.78469,-0.92953 4.46099,-1.21609 6.96195,-2.19185 0.33055,-0.061 1.14863,-0.19972 1.27857,-0.21687 l 0.0332,-0.005 v 0.2562 c 0,0.14096 -0.002,0.25617 -0.005,0.25617 -0.008,0 -0.56784,0.0791 -0.74628,0.10543 -0.70473,0.10375 -1.42931,0.23115 -2.12464,0.37341 -0.3706,0.0758 -0.93033,0.19916 -0.93698,0.20645 -0.002,0.002 0.005,0.002 0.0162,-1.7e-4 0.0498,-0.01 0.41667,-0.0801 0.62061,-0.11816 0.65131,-0.12135 1.30451,-0.22757 2.03599,-0.33107 0.23408,-0.0332 1.11925,-0.15068 1.13514,-0.15068 0.003,-10e-6 0.005,0.28967 0.005,0.64374 v 0.64376 l -0.35305,0.11699 c -1.9781,0.65594 -3.90088,1.37922 -6.9233,2.60433 -1.77309,0.7187 -4.12056,1.69806 -5.75332,2.40024 l -0.10765,0.0463 -0.82484,7e-5 -0.82485,6e-5 z m 5.0928,-2.56102 c 0.0267,-0.0169 0.0478,-0.032 0.0465,-0.0332 -0.003,-0.003 -0.1365,0.0835 -0.1365,0.0882 0,0.002 0.01,-0.003 0.0206,-0.0101 0.0113,-0.007 0.0425,-0.0277 0.0694,-0.0446 z m 0.12743,-0.0865 c 0.006,-0.008 0.005,-0.008 -0.005,-0.002 -0.006,0.003 -0.0198,0.0134 -0.0285,0.0213 l -0.0162,0.0134 0.0211,-0.0117 c 0.0113,-0.007 0.0245,-0.0168 0.0285,-0.0213 z m 0.15628,-0.10911 c 0,-0.002 -0.006,-1.4e-4 -0.013,0.003 -0.006,0.003 -0.013,0.008 -0.013,0.0101 0,0.002 0.006,1.1e-4 0.013,-0.003 0.006,-0.003 0.013,-0.008 0.013,-0.0101 z m 0.0316,-0.0196 c 0,-0.002 -0.006,-1.2e-4 -0.013,0.003 -0.006,0.003 -0.013,0.008 -0.013,0.0101 0,0.002 0.006,1.1e-4 0.013,-0.003 0.006,-0.003 0.013,-0.008 0.013,-0.0101 z m 1.79533,-0.80158 c 0.008,-0.003 0.01,-0.005 0.003,-0.005 -0.005,0 -0.0146,0.003 -0.0222,0.005 -0.008,0.003 -0.01,0.005 -0.003,0.005 0.005,0 0.0146,-0.003 0.0222,-0.005 z m 2.77692,-0.82496 c 0,-0.003 -0.003,-0.007 -0.006,-0.007 -0.003,0 -0.006,0.003 -0.006,0.007 0,0.003 0.003,0.007 0.006,0.007 0.003,0 0.006,-0.003 0.006,-0.007 z m 0.10489,-0.0238 c 0.0366,-0.01 0.0655,-0.0183 0.064,-0.0198 -0.003,-0.003 -0.13067,0.0278 -0.1357,0.033 -0.006,0.007 10e-4,0.005 0.0715,-0.0134 z"
       id="path7054"
       inkscape:connector-curvature="0"
       sodipodi:nodetypes="ccccccccscccccccccccsscccccccsccccccccccscccccccccscscsscscscscscssssscsscc" />
    <path
       style="opacity:1;fill:#afafe9;fill-opacity:1;stroke-width:0.00390625"
       d=""
       id="path7056"
       inkscape:connector-curvature="0"
       transform="translate(40.042373,-18.305083)" />
    <path
       style="opacity:1;fill:#afafe9;fill-opacity:1;stroke-width:0.00390625"
       d=""
       id="path7058"
       inkscape:connector-curvature="0"
       transform="translate(40.042373,-18.305083)" />
    <path
       style="opacity:1;fill:#afafe9;fill-opacity:1;stroke-width:0.00390625"
       d=""
       id="path7060"
       inkscape:connector-curvature="0"
       transform="translate(40.042373,-18.305083)" />
    <path
       style="fill:#d1c4e9;fill-opacity:1;stroke:#000000;stroke-width:0.57434434px;stroke-linecap:butt;stroke-linejoin:miter;stroke-opacity:1"
       d="m 300.20108,432.25438 c 0.30859,-0.0877 0.60932,-0.17325 0.76539,-0.23904 0.15606,-0.0658 0.17311,-0.10855 0.22993,-0.10915 0.0568,-6e-4 0.14973,0.0339 0.20299,0.026 0.0532,-0.008 0.0703,-0.0507 0.1368,-0.0741 0.0665,-0.0234 0.17644,-0.0319 0.23718,-0.0599 0.0607,-0.0281 0.0778,-0.0708 0.1346,-0.0714 0.0568,-6e-4 0.14975,0.0339 0.20301,0.026 0.0532,-0.008 0.0703,-0.0507 0.12713,-0.0513 0.0568,-6e-4 0.14972,0.0339 0.20298,0.026 0.0533,-0.008 0.0703,-0.0507 0.14523,-0.0968 0.0749,-0.0461 0.20212,-0.0975 0.31114,-0.1033 0.10902,-0.006 0.20191,0.0287 0.28111,0.0306 0.0792,0.002 0.14277,-0.0239 0.22971,-0.0397 0.0869,-0.0158 0.1969,-0.0243 0.31535,-0.0554 0.11845,-0.0311 0.24572,-0.0825 0.33157,-0.097 0.0858,-0.0145 0.13226,0.003 0.18824,-0.004 0.056,-0.007 0.11946,-0.0325 0.17359,-0.0341 0.0541,-0.002 0.10048,0.0156 0.1565,0.009 0.056,-0.007 0.11958,-0.0325 0.23833,-0.0616 0.11875,-0.0292 0.29234,-0.0633 0.40128,-0.0699 0.10894,-0.007 0.15532,0.0106 0.21131,0.004 0.056,-0.007 0.11955,-0.0325 0.17365,-0.0342 0.0541,-0.002 0.10045,0.0156 0.18826,-0.004 0.0878,-0.0196 0.21501,-0.071 0.30086,-0.0854 0.0858,-0.0145 0.13222,0.003 0.18821,-0.004 0.056,-0.007 0.11948,-0.0325 0.17363,-0.0342 0.0541,-0.002 0.10059,0.0155 0.13059,-10e-4 0.03,-0.0166 0.047,-0.0593 0.10386,-0.0599 0.0568,-6.3e-4 0.14974,0.0339 0.203,0.0259 0.0533,-0.008 0.0703,-0.0506 0.10396,-0.0599 0.0337,-0.009 0.08,0.008 0.13604,0.001 0.056,-0.007 0.11948,-0.0325 0.17363,-0.0342 0.0541,-0.002 0.10055,0.0155 0.13057,-0.001 0.03,-0.0166 0.0471,-0.0594 0.10391,-0.06 0.0568,-5.9e-4 0.14971,0.0339 0.20296,0.026 0.0533,-0.008 0.0703,-0.0507 0.12714,-0.0513 0.0568,-5.9e-4 0.14973,0.0339 0.22894,0.0358 0.0792,0.002 0.14277,-0.0239 0.19687,-0.0255 0.0541,-0.002 0.10051,0.0155 0.16424,-0.0138 0.0637,-0.0293 0.14441,-0.098 0.21735,-0.14414 0.0729,-0.0462 0.13649,-0.0719 0.19248,-0.0945"
       id="path7086"
       inkscape:connector-curvature="0"
       inkscape:path-effect="#path-effect7088"
       inkscape:original-d="m 300.20108,432.25438 c 0.30837,-0.0885 0.60908,-0.17409 0.90219,-0.25652 0.0248,-0.0461 0.042,-0.0888 0.0514,-0.1289 0.10035,0.0318 0.19323,0.0664 0.27871,0.10359 0.0248,-0.0461 0.042,-0.0888 0.0514,-0.12889 0.1177,-0.0117 0.22767,-0.0198 0.33006,-0.0253 0.0248,-0.0461 0.042,-0.0888 0.0514,-0.1289 0.10035,0.0318 0.19325,0.0664 0.27873,0.10359 0.0248,-0.0461 0.042,-0.0888 0.0514,-0.12889 0.10036,0.0318 0.19323,0.0664 0.27872,0.10358 0.0248,-0.0461 0.042,-0.0888 0.0514,-0.12889 0.13472,-0.0545 0.2619,-0.10593 0.3814,-0.15404 0.10035,0.0319 0.19325,0.0664 0.27872,0.10359 0.0712,-0.0287 0.13472,-0.0545 0.19071,-0.0771 0.1177,-0.0117 0.22767,-0.0199 0.33008,-0.0253 0.13472,-0.0543 0.2619,-0.10593 0.38141,-0.15404 0.0538,0.0151 0.10036,0.0319 0.13943,0.0516 0.0712,-0.0287 0.13472,-0.0543 0.19071,-0.0771 0.0538,0.0151 0.10035,0.0318 0.13943,0.0518 0.0712,-0.0287 0.13472,-0.0545 0.1907,-0.0771 0.18123,-0.0372 0.35481,-0.0714 0.52077,-0.10241 0.0538,0.0151 0.10035,0.0318 0.13942,0.0516 0.0712,-0.0287 0.13472,-0.0545 0.19072,-0.0771 0.0538,0.0151 0.10035,0.0318 0.13942,0.0518 0.13472,-0.0545 0.2619,-0.10593 0.38142,-0.15403 0.0538,0.0151 0.10035,0.0318 0.13942,0.0516 0.0712,-0.0287 0.13472,-0.0543 0.19072,-0.0771 0.0538,0.0151 0.10035,0.032 0.13942,0.0516 0.0248,-0.0461 0.0418,-0.0888 0.0514,-0.12889 0.10035,0.0318 0.19323,0.0664 0.27872,0.10358 0.0248,-0.0461 0.0418,-0.0888 0.0514,-0.12889 0.0538,0.0151 0.10035,0.0318 0.13942,0.0516 0.0712,-0.0287 0.13472,-0.0543 0.19072,-0.0771 0.0538,0.0151 0.10035,0.0319 0.13942,0.0516 0.0248,-0.0461 0.042,-0.0888 0.0514,-0.12889 0.10035,0.0319 0.19323,0.0664 0.2787,0.10358 0.0248,-0.0461 0.042,-0.0888 0.0514,-0.12889 0.10035,0.0319 0.19325,0.0664 0.27873,0.10359 0.0712,-0.0287 0.13472,-0.0545 0.1907,-0.0771 0.0538,0.0151 0.10035,0.0319 0.13942,0.0516 0.0884,-0.0717 0.169,-0.14046 0.24206,-0.20594 0.0712,-0.0287 0.13472,-0.0545 0.19072,-0.0771" />
    <path
       style="fill:#d1c4e9;fill-opacity:1;stroke:#000000;stroke-width:0.18747197px;stroke-linecap:butt;stroke-linejoin:miter;stroke-opacity:1"
       d="m 308.52947,430.90378 c 0.12811,-0.0175 0.25287,-0.0345 0.3187,-0.0491 0.0658,-0.0146 0.0748,-0.0259 0.0978,-0.0246 0.0229,10e-4 0.0588,0.0121 0.0804,0.0107 0.0216,-10e-4 0.0306,-0.0126 0.0581,-0.0173 0.0275,-0.005 0.0723,-0.005 0.0981,-0.0115 0.0258,-0.006 0.0348,-0.0177 0.0577,-0.0165 0.0229,10e-4 0.0587,0.0121 0.0804,0.0107 0.0217,-10e-4 0.0307,-0.0126 0.0536,-0.0113 0.0229,0.001 0.0588,0.0121 0.0804,0.0107 0.0216,-0.001 0.0306,-0.0126 0.0625,-0.0231 0.0319,-0.0105 0.0854,-0.0217 0.12982,-0.0212 0.0444,5.2e-4 0.0803,0.0113 0.11196,0.0131 0.0317,0.002 0.0581,-0.004 0.0938,-0.006 0.0357,-0.003 0.0805,-0.003 0.12949,-0.009 0.049,-0.006 0.1025,-0.0173 0.13797,-0.0194 0.0355,-0.002 0.0533,0.004 0.076,0.003 0.0227,-7.7e-4 0.0491,-0.006 0.0712,-0.006 0.0221,7.6e-4 0.0399,0.006 0.0627,0.006 0.0227,-7.7e-4 0.0491,-0.006 0.0983,-0.0118 0.0491,-0.005 0.12033,-0.0113 0.16477,-0.0108 0.0445,4.5e-4 0.0623,0.006 0.085,0.005 0.0227,-7.7e-4 0.0491,-0.006 0.0712,-0.006 0.0221,7.6e-4 0.0399,0.006 0.0759,0.003 0.0359,-0.004 0.0894,-0.0148 0.12489,-0.0169 0.0355,-0.002 0.0533,0.004 0.076,0.003 0.0227,-7.7e-4 0.0491,-0.006 0.0712,-0.006 0.0221,7.6e-4 0.0398,0.006 0.0525,0.002 0.0128,-0.004 0.0218,-0.0152 0.0447,-0.0139 0.0229,10e-4 0.0587,0.0121 0.0804,0.0107 0.0216,-10e-4 0.0306,-0.0126 0.0445,-0.0139 0.0139,-0.001 0.0318,0.004 0.0545,0.003 0.0227,-7.7e-4 0.0491,-0.006 0.0712,-0.006 0.0221,7.6e-4 0.0399,0.006 0.0526,0.002 0.0127,-0.004 0.0217,-0.0152 0.0446,-0.014 0.0229,0.001 0.0588,0.0121 0.0804,0.0107 0.0216,-0.001 0.0306,-0.0126 0.0536,-0.0113 0.0229,10e-4 0.0588,0.012 0.0904,0.0138 0.0316,0.002 0.0581,-0.004 0.0802,-0.003 0.0221,7.6e-4 0.0399,0.006 0.0668,-2.5e-4 0.0269,-0.007 0.0623,-0.0231 0.0937,-0.034 0.0314,-0.0108 0.0578,-0.0163 0.0814,-0.0213"
       id="path7086-4"
       inkscape:connector-curvature="0"
       inkscape:path-effect="#path-effect7088-3"
       inkscape:original-d="m 308.52947,430.90378 c 0.12807,-0.0178 0.25284,-0.0347 0.37444,-0.0511 0.0113,-0.0117 0.0208,-0.0226 0.0263,-0.033 0.0391,0.0101 0.0749,0.021 0.10764,0.0324 0.0113,-0.0117 0.0208,-0.0226 0.0263,-0.033 0.0478,-8.8e-4 0.0926,-8.8e-4 0.13407,-8.8e-4 0.0114,-0.0117 0.0208,-0.0226 0.0263,-0.033 0.0391,0.01 0.0749,0.0209 0.10765,0.0324 0.0113,-0.0117 0.0208,-0.0226 0.0263,-0.033 0.0391,0.01 0.0749,0.0209 0.10765,0.0324 0.0113,-0.0117 0.0208,-0.0226 0.0263,-0.033 0.0566,-0.0117 0.11008,-0.023 0.16034,-0.0337 0.0391,0.01 0.0749,0.0209 0.10765,0.0324 0.03,-0.007 0.0566,-0.0117 0.0801,-0.0168 0.0478,-8.7e-4 0.0926,-10e-4 0.13408,-8.7e-4 0.0566,-0.0117 0.11007,-0.023 0.16033,-0.0337 0.0211,0.005 0.0391,0.0101 0.0538,0.0168 0.03,-0.007 0.0566,-0.0117 0.0801,-0.0168 0.0211,0.005 0.0391,0.0101 0.0538,0.0168 0.03,-0.007 0.0566,-0.0117 0.0801,-0.0168 0.0746,-0.007 0.14591,-0.0117 0.21414,-0.0174 0.0211,0.005 0.0391,0.0101 0.0538,0.0168 0.03,-0.007 0.0566,-0.0117 0.0801,-0.0168 0.0211,0.005 0.0391,0.0101 0.0538,0.0168 0.0566,-0.0117 0.11008,-0.023 0.16033,-0.0337 0.0211,0.005 0.0391,0.0101 0.0538,0.0168 0.03,-0.007 0.0566,-0.0117 0.0801,-0.0168 0.0211,0.005 0.0389,0.0101 0.0538,0.0168 0.0113,-0.0117 0.0208,-0.0226 0.0263,-0.033 0.0391,0.0101 0.0749,0.021 0.10765,0.0324 0.0113,-0.0117 0.0207,-0.0226 0.0263,-0.033 0.0211,0.005 0.0391,0.0101 0.0538,0.0168 0.03,-0.007 0.0566,-0.0117 0.0801,-0.0168 0.0211,0.005 0.0391,0.0101 0.0538,0.0168 0.0113,-0.0117 0.0208,-0.0226 0.0263,-0.033 0.0391,0.01 0.0749,0.0209 0.10764,0.0324 0.0113,-0.0117 0.0208,-0.0226 0.0263,-0.033 0.0391,0.0101 0.0749,0.021 0.10764,0.0323 0.03,-0.007 0.0566,-0.0117 0.0801,-0.0168 0.0211,0.005 0.0391,0.0101 0.0538,0.0168 0.0387,-0.0173 0.0741,-0.0339 0.10652,-0.0498 0.03,-0.007 0.0566,-0.0117 0.0801,-0.0168" />
    <path
       style="fill:#d1c4e9;fill-opacity:1;stroke:#000000;stroke-width:0.12685089px;stroke-linecap:butt;stroke-linejoin:miter;stroke-opacity:1"
       d="m 311.72733,430.6909 c 0.65067,-0.0378 1.23174,-0.0715 1.8858,-0.10813 0.65405,-0.0366 1.12611,-0.0619 1.65606,-0.0903"
       id="path7086-2"
       inkscape:connector-curvature="0"
       inkscape:path-effect="#path-effect7088-8"
       inkscape:original-d="m 311.72733,430.6909 c 0,0 1.23173,-0.0717 1.95201,-0.1133 0.58782,-0.0319 1.58985,-0.0851 1.58985,-0.0851"
       sodipodi:nodetypes="ccc" />
  </g>
</svg>
